<?xml version="1.0" encoding="UTF-8"?>
<svg width="52px" height="52px" viewBox="0 0 52 52" version="1.1" xmlns="http://www.w3.org/2000/svg" xmlns:xlink="http://www.w3.org/1999/xlink">
    <!-- Generator: Sketch 61.2 (89653) - https://sketch.com -->
    <title>Group</title>
    <desc>Created with Sketch.</desc>
    <g id="Page-1" stroke="none" stroke-width="1" fill="none" fill-rule="evenodd">
        <g id="Artboard" transform="translate(-14.000000, -14.000000)">
            <g id="Group" transform="translate(14.000000, 14.000000)">
                <path d="M46,51 L46,52 L34,52 L34,51 L46,51 Z M49,50 L49,51 L46,51 L46,50 L49,50 Z M34,50 L34,51 L32,51 L32,50 L34,50 Z M32,49 L32,50 L31,50 L31,49 L32,49 Z M50,48 L50,50 L49,50 L49,48 L50,48 Z M5,48 L5,49 L1,49 L1,48 L5,48 Z M31,48 L31,49 L30,49 L30,48 L31,48 Z M1,46 L1,48 L0,48 L0,46 L1,46 Z M7,47 L7,48 L5,48 L5,47 L7,47 Z M30,47 L30,48 L28,48 L28,47 L30,47 Z M51,46 L51,48 L50,48 L50,46 L51,46 Z M9,46 L9,47 L7,47 L7,46 L9,46 Z M28,46 L28,47 L25,47 L25,46 L28,46 Z M2,44 L2,46 L1,46 L1,44 L2,44 Z M12,45 L12,46 L9,46 L9,45 L12,45 Z M25,45 L25,46 L18,46 L18,45 L25,45 Z M52,41 L52,46 L51,46 L51,41 L52,41 Z M18,44 L18,45 L12,45 L12,44 L18,44 Z M3,42 L3,44 L2,44 L2,42 L3,42 Z M44,32 L44,42 L46,42 L46,43 L44,43 L44,44 L43,44 L43,32 L44,32 Z M4,40 L4,42 L3,42 L3,40 L4,40 Z M48,41 L48,42 L46,42 L46,41 L48,41 Z M51,40 L51,41 L48,41 L48,40 L51,40 Z M5,39 L5,40 L4,40 L4,39 L5,39 Z M6,38 L6,39 L5,39 L5,38 L6,38 Z M7,37 L7,38 L6,38 L6,37 L7,37 Z M8,36 L8,37 L7,37 L7,36 L8,36 Z M10,35 L10,36 L8,36 L8,35 L10,35 Z M13,34 L13,35 L10,35 L10,34 L13,34 Z M14,31 L14,34 L13,34 L13,31 L14,31 Z M43,28 L43,32 L42,32 L42,28 L43,28 Z M15,29 L15,31 L14,31 L14,29 L15,29 Z M16,27 L16,29 L15,29 L15,27 L16,27 Z M42,27 L42,28 L41,28 L41,27 L42,27 Z M17,26 L17,27 L16,27 L16,26 L17,26 Z M43,25 L43,27 L42,27 L42,25 L43,25 Z M16,25 L16,26 L15,26 L15,25 L16,25 Z M44,10 L44,25 L43,25 L43,10 L44,10 Z M26,24 L26,25 L20,25 L20,24 L26,24 Z M15,23 L15,25 L14,25 L14,23 L15,23 Z M20,23 L20,24 L19,24 L19,23 L20,23 Z M27,23 L27,24 L26,24 L26,23 L27,23 Z M14,21 L14,23 L13,23 L13,21 L14,21 Z M23,14 L23,15 L24,15 L24,16 L25,16 L25,15 L26,15 L26,18 L24,18 L24,19 L21,19 L21,20 L20,20 L20,22 L19,22 L19,16 L20,16 L20,14 L23,14 Z M13,19 L13,21 L12,21 L12,19 L13,19 Z M34,20 L34,21 L33,21 L33,20 L34,20 Z M35,19 L35,20 L34,20 L34,19 L35,19 Z M16,17 L16,19 L15,19 L15,17 L16,17 Z M36,15 L36,19 L35,19 L35,15 L36,15 Z M12,17 L12,19 L11,19 L11,17 L12,17 Z M15,13 L15,17 L14,17 L14,13 L15,13 Z M11,15 L11,17 L10,17 L10,15 L11,15 Z M10,13 L10,15 L9,15 L9,13 L10,13 Z M35,7 L35,15 L34,15 L34,7 L35,7 Z M16,12 L16,13 L15,13 L15,12 L16,12 Z M23,11 L23,13 L20,13 L20,11 L23,11 Z M9,10 L9,13 L8,13 L8,10 L9,10 Z M19,11 L19,12 L17,12 L17,11 L19,11 Z M29,11 L29,12 L26,12 L26,11 L29,11 Z M15,8 L15,12 L14,12 L14,8 L15,8 Z M43,7 L43,10 L42,10 L42,7 L43,7 Z M8,9 L8,10 L7,10 L7,9 L8,9 Z M7,8 L7,9 L6,9 L6,8 L7,8 Z M16,7 L16,8 L15,8 L15,7 L16,7 Z M6,5 L6,8 L4,8 L4,7 L5,7 L5,6 L4,6 L4,5 L6,5 Z M20,7 L20,8 L19,8 L19,7 L20,7 Z M29,7 L29,8 L28,8 L28,7 L29,7 Z M14,6 L14,7 L13,7 L13,6 L14,6 Z M28,6 L28,7 L20,7 L20,6 L28,6 Z M30,5 L30,7 L29,7 L29,5 L30,5 Z M42,5 L42,7 L41,7 L41,5 L42,5 Z M34,5 L34,7 L32,7 L32,6 L33,6 L33,5 L34,5 Z M19,6 L19,7 L16,7 L16,6 L19,6 Z M13,5 L13,6 L12,6 L12,5 L13,5 Z M12,4 L12,5 L10,5 L10,4 L12,4 Z M41,3 L41,5 L40,5 L40,3 L41,3 Z M33,3 L33,5 L30,5 L30,4 L32,4 L32,3 L33,3 Z M10,3 L10,4 L7,4 L7,5 L6,5 L6,4 L5,4 L5,3 L10,3 Z M40,2 L40,3 L39,3 L39,2 L40,2 Z M34,2 L34,3 L33,3 L33,2 L34,2 Z M39,1 L39,2 L38,2 L38,1 L39,1 Z M38,0 L38,1 L33,1 L33,2 L31,2 L31,1 L32,1 L32,0 L38,0 Z" id="Bear_outline+eyes+nose+mouth_inner" fill="#1E2128"></path>
                <g id="Bear_teeth" transform="translate(19.000000, 14.000000)">
                    <path d="M7,8 L7,10 L5,10 L5,9 L6,9 L6,8 L7,8 Z M2,9 L2,10 L1,10 L1,9 L2,9 Z M1,8 L1,9 L0,9 L0,8 L1,8 Z M1,0 L1,2 L0,2 L0,0 L1,0 Z M6,0 L6,2 L5,2 L5,0 L6,0 Z" id="Combined-Shape" fill="#E8D8D1"></path>
                    <rect id="Rectangle" fill="#FEFFFF" x="4" y="0" width="1" height="1"></rect>
                </g>
                <g id="Bear_Tongue" transform="translate(20.000000, 18.000000)">
                    <path d="M4,5 L4,6 L3,6 L3,5 L4,5 Z M7,0 L7,5 L6,5 L6,4 L5,4 L5,1 L4,1 L4,2 L3,2 L3,1 L4,1 L4,0 L7,0 Z M3,2 L3,4 L2,4 L2,2 L3,2 Z" id="Combined-Shape" fill="#C43225"></path>
                    <path d="M2,4 L3,4 L3,2 L4,2 L4,1 L5,1 L5,5 L3,5 L3,6 L1,6 L1,5 L0,5 L0,2 L1,2 L1,1 L3,1 L3,2 L2,2 L2,4 Z" id="Combined-Shape" fill="#DB5347"></path>
                </g>
                <path d="M39,8 L39,10 L40,10 L40,13 L41,13 L41,19 L40,19 L40,21 L39,21 L39,22 L38,22 L38,23 L36,23 L36,26 L35,26 L35,27 L36,27 L36,26 L39,26 L39,27 L40,27 L40,31 L39,31 L39,33 L38,33 L38,34 L37,34 L37,37 L38,37 L38,39 L37,39 L37,40 L40,40 L40,43 L33,43 L33,44 L34,44 L34,45 L37,45 L37,46 L40,46 L40,47 L41,47 L41,48 L48,48 L48,46 L49,46 L49,45 L50,45 L50,43 L51,43 L51,46 L50,46 L50,48 L49,48 L49,50 L46,50 L46,51 L34,51 L34,50 L32,50 L32,49 L31,49 L31,48 L30,48 L30,47 L28,47 L28,46 L25,46 L25,45 L24,45 L24,44 L23,44 L23,43 L21,43 L21,42 L20,42 L20,41 L18,41 L18,40 L13,40 L13,41 L11,41 L11,42 L10,42 L10,43 L8,43 L8,44 L7,44 L7,45 L5,45 L5,46 L4,46 L4,47 L1,47 L1,46 L2,46 L2,44 L3,44 L3,42 L4,42 L4,40 L5,40 L5,39 L6,39 L6,38 L7,38 L7,37 L8,37 L8,36 L10,36 L10,35 L17,35 L17,34 L15,34 L15,32 L14,32 L14,31 L15,31 L15,29 L16,29 L16,28 L17,28 L17,29 L19,29 L19,28 L20,28 L20,27 L22,27 L22,26 L27,26 L27,25 L28,25 L28,27 L29,27 L29,26 L30,26 L30,25 L31,25 L31,26 L32,26 L32,25 L33,25 L33,23 L35,23 L35,19 L36,19 L36,18 L37,18 L37,17 L38,17 L38,14 L37,14 L37,12 L36,12 L36,10 L37,10 L37,8 L39,8 Z M25,28 L23,28 L23,29 L25,29 L25,30 L32,30 L32,29 L34,29 L34,28 L32,28 L32,29 L25,29 L25,28 Z M23,27 L22,27 L22,28 L23,28 L23,27 Z M17,22 L17,21 L18,21 L18,24 L19,24 L19,25 L20,25 L20,27 L19,27 L19,28 L17,28 L17,26 L16,26 L16,25 L15,25 L15,23 L14,23 L14,21 L13,21 L13,19 L12,19 L12,17 L11,17 L11,15 L10,15 L10,11 L12,11 L12,9 L11,9 L11,7 L10,7 L10,6 L7,6 L7,4 L10,4 L10,5 L12,5 L12,6 L13,6 L13,7 L14,7 L14,12 L15,12 L15,13 L14,13 L14,17 L15,17 L15,19 L16,19 L16,22 L17,22 Z M25,7 L25,8 L31,8 L31,9 L32,9 L32,19 L31,19 L31,21 L30,21 L30,22 L29,22 L29,23 L28,23 L28,18 L27,18 L27,17 L28,17 L28,16 L29,16 L29,15 L28,15 L28,13 L27,13 L27,12 L29,12 L29,11 L26,11 L26,12 L25,12 L25,11 L20,11 L20,12 L19,12 L19,11 L18,11 L18,10 L19,10 L19,8 L20,8 L20,7 L25,7 Z M38,1 L38,3 L37,3 L37,2 L35,2 L35,1 L38,1 Z" id="bear_body" fill="#A47A54"></path>
                <path d="M18,40 L18,41 L20,41 L20,42 L21,42 L21,43 L23,43 L23,44 L24,44 L24,45 L18,45 L18,44 L12,44 L12,45 L9,45 L9,46 L7,46 L7,47 L5,47 L5,48 L1,48 L1,47 L4,47 L4,46 L5,46 L5,45 L7,45 L7,44 L8,44 L8,43 L10,43 L10,42 L11,42 L11,41 L13,41 L13,40 L18,40 Z M35,1 L35,2 L37,2 L37,3 L38,3 L38,2 L39,2 L39,3 L40,3 L40,5 L41,5 L41,7 L42,7 L42,22 L41,22 L41,23 L40,23 L40,25 L41,25 L41,24 L42,24 L42,27 L41,27 L41,28 L42,28 L42,33 L41,33 L41,38 L42,38 L42,41 L43,41 L43,44 L44,44 L44,43 L46,43 L46,42 L48,42 L48,41 L51,41 L51,43 L50,43 L50,45 L49,45 L49,46 L48,46 L48,48 L41,48 L41,47 L40,47 L40,46 L37,46 L37,45 L34,45 L34,44 L33,44 L33,43 L40,43 L40,40 L37,40 L37,39 L38,39 L38,37 L37,37 L37,34 L38,34 L38,33 L39,33 L39,31 L40,31 L40,27 L39,27 L39,26 L36,26 L36,27 L35,27 L35,26 L36,26 L36,23 L38,23 L38,22 L39,22 L39,21 L40,21 L40,19 L41,19 L41,13 L40,13 L40,10 L39,10 L39,8 L37,8 L37,10 L36,10 L36,12 L37,12 L37,14 L38,14 L38,17 L37,17 L37,18 L36,18 L36,15 L35,15 L35,19 L34,19 L34,20 L33,20 L33,21 L32,21 L32,22 L31,22 L31,23 L30,23 L30,24 L29,24 L29,25 L30,25 L30,26 L29,26 L29,27 L28,27 L28,25 L27,25 L27,26 L22,26 L22,27 L20,27 L20,25 L26,25 L26,24 L27,24 L27,18 L28,18 L28,23 L29,23 L29,22 L30,22 L30,21 L31,21 L31,19 L32,19 L32,9 L31,9 L31,8 L29,8 L29,7 L30,7 L30,5 L33,5 L33,3 L34,3 L34,2 L33,2 L33,1 L35,1 Z M15,32 L15,34 L17,34 L17,35 L13,35 L13,34 L14,34 L14,32 L15,32 Z M32,29 L32,30 L25,30 L25,29 L32,29 Z M19,28 L19,29 L17,29 L17,28 L19,28 Z M25,28 L25,29 L23,29 L23,28 L25,28 Z M34,28 L34,29 L32,29 L32,28 L34,28 Z M20,27 L20,28 L19,28 L19,27 L20,27 Z M23,27 L23,28 L22,28 L22,27 L23,27 Z M17,27 L17,28 L16,28 L16,27 L17,27 Z M33,24 L33,25 L32,25 L32,26 L31,26 L31,24 L33,24 Z M20,24 L20,25 L19,25 L19,24 L20,24 Z M19,22 L19,24 L18,24 L18,22 L19,22 Z M35,20 L35,23 L33,23 L33,21 L34,21 L34,20 L35,20 Z M17,11 L17,12 L19,12 L19,14 L18,14 L18,15 L19,15 L19,21 L18,21 L18,20 L17,20 L17,22 L16,22 L16,16 L15,16 L15,13 L16,13 L16,11 L17,11 Z M27,12 L27,13 L28,13 L28,15 L29,15 L29,16 L28,16 L28,17 L27,17 L27,18 L26,18 L26,15 L27,15 L27,14 L26,14 L26,13 L25,13 L25,12 L27,12 Z M35,7 L34,7 L34,15 L35,15 L35,7 Z M7,9 L7,8 L6,8 L6,5 L7,5 L7,6 L10,6 L10,7 L11,7 L11,9 L12,9 L12,11 L10,11 L10,13 L9,13 L9,10 L8,10 L8,9 L7,9 Z M25,11 L25,12 L23,12 L23,11 L25,11 Z M18,7 L18,8 L17,8 L17,10 L16,10 L16,11 L15,11 L15,8 L16,8 L16,7 L18,7 Z M18,10 L18,11 L17,11 L17,10 L18,10 Z M19,9 L19,10 L18,10 L18,9 L19,9 Z M28,7 L28,8 L25,8 L25,7 L28,7 Z M34,5 L33,5 L33,6 L32,6 L32,7 L34,7 L34,5 Z" id="Bear_shadow_1" fill="#8A633C"></path>
                <path d="M43,32 L43,41 L42,41 L42,38 L41,38 L41,33 L42,33 L42,32 L43,32 Z M43,10 L43,25 L42,25 L42,24 L41,24 L41,25 L40,25 L40,23 L41,23 L41,22 L42,22 L42,10 L43,10 Z M31,25 L29,25 L29,24 L30,24 L30,23 L31,23 L31,22 L32,22 L32,21 L33,21 L33,24 L31,24 L31,25 Z M19,21 L19,22 L18,22 L18,21 L19,21 Z M18,20 L18,21 L17,21 L17,20 L18,20 Z M16,16 L16,17 L15,17 L15,16 L16,16 Z M16,11 L16,12 L15,12 L15,11 L16,11 Z M17,10 L17,11 L16,11 L16,10 L17,10 Z M19,7 L19,9 L18,9 L18,10 L17,10 L17,8 L18,8 L18,7 L19,7 Z" id="Bear_shadow_2" fill="#724B24"></path>
                <path d="M19,14 L19,15 L18,15 L18,14 L19,14 Z M19,14 L19,12 L20,12 L20,13 L23,13 L23,12 L25,12 L25,13 L26,13 L26,14 L27,14 L27,15 L25,15 L25,14 L19,14 Z" id="Bear_muzzle" fill="#C59B75"></path>
            </g>
        </g>
    </g>
</svg>