<?xml version="1.0" encoding="UTF-8"?>
<svg width="14px" height="20px" viewBox="0 0 14 20" version="1.1" xmlns="http://www.w3.org/2000/svg" xmlns:xlink="http://www.w3.org/1999/xlink">
    <!-- Generator: Sketch 61.2 (89653) - https://sketch.com -->
    <title>downvote_icon</title>
    <desc>Created with Sketch.</desc>
    <g id="Page-1" stroke="none" stroke-width="1" fill="none" fill-rule="evenodd">
        <g id="Hunter" transform="translate(-923.000000, -146.000000)" fill="#D8D8D8">
            <g id="Group-6" transform="translate(257.000000, 144.000000)">
                <g id="Group-2">
                    <g id="Group" transform="translate(605.000000, 1.000000)">
                        <path d="M62.0497655,11.2439024 C61.4974807,11.2439024 61.0497655,10.7961872 61.0497655,10.2439024 C61.0497655,10.0208499 61.1243388,9.8042003 61.2616273,9.62840407 L67.2118618,2.0092013 C67.5517922,1.57392461 68.1802217,1.49663115 68.6154984,1.83656151 C68.6798803,1.88684075 68.7378589,1.94481935 68.7881382,2.0092013 L74.7383727,9.62840407 C75.0783031,10.0636808 75.0010096,10.6921102 74.5657329,11.0320406 C74.3899367,11.1693291 74.1732871,11.2439024 73.9502345,11.2439024 L71.6363636,11.2439024 L71.6363636,19 C71.6363636,20.1045695 70.7409331,21 69.6363636,21 L66.3636364,21 C65.2590669,21 64.3636364,20.1045695 64.3636364,19 L64.3636364,11.2439024 L62.0497655,11.2439024 Z" id="downvote_icon" transform="translate(68.000000, 11.000000) scale(1, -1) translate(-68.000000, -11.000000) "></path>
                    </g>
                </g>
            </g>
        </g>
    </g>
</svg>