<?xml version="1.0" encoding="UTF-8"?>
<svg width="14px" height="20px" viewBox="0 0 14 20" version="1.1" xmlns="http://www.w3.org/2000/svg" xmlns:xlink="http://www.w3.org/1999/xlink">
    <!-- Generator: Sketch 61.2 (89653) - https://sketch.com -->
    <title>downvoted_icon</title>
    <desc>Created with Sketch.</desc>
    <g id="Page-1" stroke="none" stroke-width="1" fill="none" fill-rule="evenodd">
        <g id="Hunter" transform="translate(-882.000000, -70.000000)" fill="#ED0020">
            <path d="M883.049765,80.2439024 C882.497481,80.2439024 882.049765,79.7961872 882.049765,79.2439024 C882.049765,79.0208499 882.124339,78.8042003 882.261627,78.6284041 L888.211862,71.0092013 C888.551792,70.5739246 889.180222,70.4966311 889.615498,70.8365615 C889.67988,70.8868407 889.737859,70.9448194 889.788138,71.0092013 L895.738373,78.6284041 C896.078303,79.0636808 896.00101,79.6921102 895.565733,80.0320406 C895.389937,80.1693291 895.173287,80.2439024 894.950235,80.2439024 L892.636364,80.2439024 L892.636364,88 C892.636364,89.1045695 891.740933,90 890.636364,90 L887.363636,90 C886.259067,90 885.363636,89.1045695 885.363636,88 L885.363636,80.2439024 L883.049765,80.2439024 Z" id="downvoted_icon" transform="translate(889.000000, 80.000000) scale(1, -1) translate(-889.000000, -80.000000) "></path>
        </g>
    </g>
</svg>