<?xml version="1.0" encoding="UTF-8"?>
<svg width="200px" height="280px" viewBox="0 0 200 280" version="1.1" xmlns="http://www.w3.org/2000/svg" xmlns:xlink="http://www.w3.org/1999/xlink">
    <!-- Generator: Sketch 61.2 (89653) - https://sketch.com -->
    <title>forest</title>
    <desc>Created with Sketch.</desc>
    <g id="forest" stroke="none" stroke-width="1" fill="none" fill-rule="evenodd">
        <rect id="Rectangle" fill="#2B2E3E" x="0" y="0" width="200" height="285"></rect>
        <g id="Forest" transform="translate(0.000000, 1.000000)">
            <g id="Lake" transform="translate(0.000000, 252.000000)">
                <rect id="LakeBG" fill="#505568" x="0" y="1" width="129" height="11"></rect>
                <path d="M62,9 L62,10 L61,10 L61,11 L60,11 L60,9 L62,9 Z M59,9 L59,11 L58,11 L58,9 L59,9 Z M57,9 L57,11 L56,11 L56,10 L54,10 L54,9 L57,9 Z M66,9 L66,10 L65,10 L65,9 L66,9 Z M68,9 L68,10 L67,10 L67,9 L68,9 Z M72,9 L72,10 L71,10 L71,9 L72,9 Z M74,9 L74,10 L73,10 L73,9 L74,9 Z M16,8 L16,9 L15,9 L15,8 L16,8 Z M53,8 L53,9 L52,9 L52,8 L53,8 Z M11,8 L11,9 L9,9 L9,8 L11,8 Z M25,6 L25,7 L24,7 L24,6 L25,6 Z M44,6 L44,7 L43,7 L43,6 L44,6 Z M76,6 L76,7 L75,7 L75,6 L76,6 Z M78,6 L78,7 L77,7 L77,6 L78,6 Z M81,6 L81,7 L80,7 L80,6 L81,6 Z M67,6 L67,7 L64,7 L64,6 L67,6 Z M71,6 L71,7 L68,7 L68,6 L71,6 Z M60,6 L60,7 L59,7 L59,6 L60,6 Z M58,6 L58,7 L57,7 L57,6 L58,6 Z M18,6 L18,7 L12,7 L12,6 L18,6 Z M31,5 L31,6 L30,6 L30,5 L31,5 Z M33,5 L33,6 L32,6 L32,5 L33,5 Z M36,5 L36,6 L34,6 L34,5 L36,5 Z M38,5 L38,6 L37,6 L37,5 L38,5 Z M119,4 L119,5 L118,5 L118,4 L119,4 Z M122,4 L122,5 L121,5 L121,4 L122,4 Z M117,4 L117,5 L115,5 L115,4 L117,4 Z M55,4 L55,5 L54,5 L54,4 L55,4 Z M2,4 L2,5 L1,5 L1,4 L2,4 Z M59,4 L59,5 L58,5 L58,4 L59,4 Z M53,4 L53,5 L52,5 L52,4 L53,4 Z M61,4 L61,5 L60,5 L60,4 L61,4 Z M67,4 L67,5 L66,5 L66,4 L67,4 Z M73,4 L73,5 L72,5 L72,4 L73,4 Z M112,4 L112,5 L111,5 L111,4 L112,4 Z M114,4 L114,5 L113,5 L113,4 L114,4 Z M15,4 L15,5 L3,5 L3,4 L15,4 Z M57,4 L57,5 L56,5 L56,4 L57,4 Z M81,3 L81,4 L80,4 L80,3 L81,3 Z M86,3 L86,4 L83,4 L83,3 L86,3 Z M109,3 L109,4 L107,4 L107,3 L109,3 Z M111,3 L111,4 L110,4 L110,3 L111,3 Z M116,2 L116,3 L115,3 L115,2 L116,2 Z M129,0 L129,2 L128,2 L128,1 L0,1 L0,0 L129,0 Z" id="Lakeref" fill="#8A8D97" opacity="0.5"></path>
            </g>
            <g id="Mountains" transform="translate(0.000000, 176.000000)">
                <path d="M199,50 L199,51 L197,51 L197,54 L200,54 L200,76 L0,76 L0,54 L10,54 L10,56 L14,56 L14,58 L22,58 L22,60 L24,60 L24,62 L26,62 L26,64 L28,64 L28,66 L30,66 L30,64 L32,64 L32,62 L34,62 L34,60 L38,60 L38,58 L46,58 L46,56 L48,56 L48,54 L50,54 L50,52 L70,52 L70,54 L72,54 L72,52 L76,52 L76,50 L86,50 L86,52 L88,52 L88,54 L100,54 L100,56 L106,56 L106,58 L108,58 L108,60 L110,60 L110,55 L111,55 L111,56 L112,56 L112,54 L114,54 L114,52 L116,52 L116,50 L130,50 L130,52 L135,52 L135,51 L136,51 L136,50 L199,50 Z M105,53 L105,54 L104,54 L104,53 L105,53 Z M196,51 L194,51 L194,54 L196,54 L196,51 Z" id="M6" fill="#135537"></path>
                <path d="M70,52 L70,52.308 L50,52.379 L50,52 L70,52 Z M86,50 L86,52 L88,52 L88,52.243 L72,52.3 L72,52 L76,52 L76,50 L86,50 Z M156,34 L156,52 L114,52.15 L114,52 L116,52 L116,50 L130,50 L130,52 L135,52 L135,51 L136,51 L136,49 L137,49 L137,48 L136,48 L136,47 L135,47 L135,46 L123,46 L123,45 L126,45 L126,44 L129,44 L129,43 L130,43 L130,42 L131,42 L131,41 L133,41 L133,42 L137,42 L137,39 L138,39 L138,38 L141,38 L141,39 L142,39 L142,41 L143,41 L143,39 L144,39 L144,40 L145,40 L145,39 L151,39 L151,38 L152,38 L152,37 L153,37 L153,36 L154,36 L154,35 L155,35 L155,34 L156,34 Z M141,33 L155,32.999 L155,33 L144,33 L144,38 L142,38 L142,37 L137,37 L137,38 L136,38 L136,40 L133,40 L133,39 L131,39 L131,40 L130,40 L130,41 L129,41 L129,42 L127,42 L127,43 L125,43 L125,44 L116,44 L116,45 L110,45 L110,44 L108,44 L108,43 L107,43 L107,42 L106,42 L106,44 L104,44 L104,43 L102,43 L102,44 L103,44 L103,46 L104,46 L104,45 L108,45 L108,46 L110,46 L110,47 L111,47 L111,48 L102,48 L102,49 L105,49 L105,50 L106,50 L106,49 L107,49 L107,50 L108,50 L108,49 L109,49 L109,50 L110,50 L110,49 L113,49 L113,50 L114,50 L114,51 L111,51 L111,52 L90,52 L90,50 L87,50 L87,49 L86,49 L86,48 L53,48 L53,47 L58,47 L58,46 L60,46 L60,44 L61,44 L61,43 L63,43 L63,44 L64,44 L64,45 L65,45 L65,43 L69,43 L69,44 L70,44 L70,45 L71,45 L71,43 L72,43 L72,42 L74,42 L74,43 L76,43 L76,41 L77,41 L77,40 L80,40 L80,36 L81,36 L81,35 L86,35 L86,36 L87,36 L87,37 L90,37 L90,38 L91,38 L91,37 L92,37 L92,36 L94,36 L94,35 L95,35 L95,34 L100,34 L100,35 L101,35 L101,36 L102,36 L102,34 L104,34 L104,32 L109,32 L109,33 L110,33 L110,34 L112,34 L112,33 L113,33 L113,32 L114,32 L114,31 L115,31 L115,30 L116,30 L116,29 L122,29 L122,30 L124,30 L124,31 L130,31 L130,32 L132,32 L132,33 L141,33 Z M96,41 L93,41 L93,42 L95,42 L95,43 L96,43 L96,44 L97,44 L97,45 L98,45 L98,44 L99,44 L99,43 L102,43 L102,42 L98,42 L98,41 L97,41 L97,42 L96,42 L96,41 Z M92,38 L91,38 L91,41 L93,41 L93,40 L92,40 L92,38 Z M153,39 L151,39 L151,40 L153,40 L153,39 Z M143,33 L141,33 L141,35 L143,35 L143,33 Z" id="M5" fill="#155B3B"></path>
                <path d="M18,52 L12,52 L12,54 L8,54 L8,52 L4,52 L4,51 L0,51 L0,36 L6,36 L6,38 L8,38 L8,36 L10,36 L10,34 L20,34 L20,36 L22,36 L22,40 L24,40 L24,42 L26,42 L26,44 L28,44 L28,42 L30,42 L30,40 L38,40 L38,42 L42,42 L42,36 L44,36 L44,32 L46,32 L46,30 L54,30 L54,32 L56,32 L56,28 L58,28 L58,26 L66,26 L66,24 L68,24 L68,22 L80,22 L80,24 L82,24 L82,26 L84,26 L84,29 L78,29 L78,30 L75,30 L75,31 L73,31 L73,32 L71,32 L71,33 L69,33 L69,34 L68,34 L68,35 L67,35 L67,36 L66,36 L66,37 L65,37 L65,38 L58,38 L58,39 L56,39 L56,40 L55,40 L55,41 L54,41 L54,42 L51,42 L51,44 L49,44 L49,46 L44,46 L44,48 L30,48 L30,49 L24,49 L24,50 L18,50 L18,52 Z" id="M3" fill="#125737"></path>
                <path d="M65,20 L73,20 L73,19 L79,19 L79,20 L83,20 L83,19 L87,19 L87,20 L92,20 L92,21 L96,21 L96,22 L98,22 L98,23 L102,23 L102,24 L104,24 L104,25 L102,25 L102,26 L100,26 L100,27 L99,27 L99,28 L97,28 L97,29 L95,29 L95,30 L86,30 L86,29 L84,29 L84,26 L82,26 L82,24 L80,24 L80,22 L68,22 L68,24 L66,24 L66,26 L58,26 L58,28 L56,28 L56,32 L54,32 L54,30 L46,30 L46,32 L44,32 L44,36 L42,36 L42,42 L38,42 L38,40 L30,40 L30,42 L28,42 L28,44 L26,44 L26,42 L24,42 L24,40 L22,40 L22,36 L20,36 L20,34 L10,34 L10,36 L8,36 L8,38 L6,38 L6,36 L0,36 L0,19 L2,19 L2,18 L11,18 L11,19 L19,19 L19,20 L23,20 L23,21 L24,21 L24,22 L26,22 L26,23 L30,23 L30,24 L32,24 L32,25 L35,25 L35,26 L37,26 L37,27 L41,27 L41,28 L47,28 L47,27 L49,27 L49,26 L52,26 L52,25 L54,25 L54,24 L57,24 L57,23 L58,23 L58,22 L65,22 L65,20 Z M196,39 L196,40 L194,40 L194,39 L196,39 Z M194,37 L194,38 L193,38 L193,37 L194,37 Z M193,36 L193,37 L192,37 L192,36 L193,36 Z M192,35 L192,36 L191,36 L191,35 L192,35 Z M196,35 L196,36 L195,36 L195,35 L196,35 Z M200,35 L200,36 L198,36 L198,35 L200,35 Z M192,22 L192,23 L193,23 L193,28 L194,28 L194,29 L195,29 L195,25 L196,25 L196,28 L197,28 L197,30 L199,30 L199,28 L198,28 L198,26 L199,26 L199,27 L200,27 L200,34 L193,34 L193,33 L191,33 L191,32 L192,32 L192,30 L191,30 L191,31 L190,31 L190,22 L192,22 Z M172,16 L172,19 L171,19 L171,20 L169,20 L169,21 L172,21 L172,23 L171,23 L171,24 L169,24 L169,25 L168,25 L168,24 L167,24 L167,26 L165,26 L165,27 L163,27 L163,26 L162,26 L162,25 L160,25 L160,24 L159,24 L159,26 L160,26 L160,27 L161,27 L161,28 L155,28 L155,29 L152,29 L152,28 L146,28 L146,29 L148,29 L148,30 L154,30 L154,32 L155,32 L155,33 L141,33 L141,32 L139,32 L139,31 L138,31 L138,30 L140,30 L140,28 L144,28 L144,26 L150,26 L150,24 L154,24 L154,22 L160,22 L160,20 L166,20 L166,18 L170,18 L170,16 L172,16 Z M161,29 L161,30 L160,30 L160,31 L158,31 L158,32 L156,32 L156,31 L157,31 L157,30 L158,30 L158,29 L161,29 Z M164,30 L164,31 L163,31 L163,30 L164,30 Z M167,27 L167,29 L168,29 L168,31 L166,31 L166,27 L167,27 Z M170,30 L170,31 L169,31 L169,30 L170,30 Z M180,30 L180,31 L179,31 L179,30 L180,30 Z M186,30 L186,31 L183,31 L183,30 L186,30 Z M186,10 L186,24 L184,24 L184,26 L186,26 L186,28 L183,28 L183,25 L181,25 L181,30 L180,30 L180,29 L179,29 L179,28 L178,28 L178,27 L180,27 L180,26 L178,26 L178,21 L179,21 L179,20 L180,20 L180,19 L181,19 L181,18 L182,18 L182,13 L183,13 L183,16 L184,16 L184,11 L183,11 L183,10 L186,10 Z M172,27 L172,30 L170,30 L170,29 L171,29 L171,27 L172,27 Z M169,26 L169,28 L168,28 L168,26 L169,26 Z M194,10 L194,11 L196,11 L196,10 L200,10 L200,25 L197,25 L197,24 L196,24 L196,23 L195,23 L195,22 L193,22 L193,21 L192,21 L192,20 L191,20 L191,18 L190,18 L190,17 L192,17 L192,16 L190,16 L190,10 L194,10 Z M168,21 L167,21 L167,22 L168,22 L168,21 Z M180,16 L180,19 L179,19 L179,16 L180,16 Z M182,10 L182,13 L181,13 L181,14 L180,14 L180,15 L179,15 L179,16 L178,16 L178,12 L180,12 L180,10 L182,10 Z M174,14 L174,16 L172,16 L172,14 L174,14 Z" id="M2" fill="#004A28"></path>
                <path d="M124,16 L124,18 L128,18 L128,20 L130,20 L130,22 L134,22 L134,20 L140,20 L140,18 L144,18 L144,16 L152,16 L152,18 L158,18 L158,20 L160,20 L160,22 L154,22 L154,24 L150,24 L150,26 L144,26 L144,28 L140,28 L140,30 L138,30 L138,31 L137,31 L137,29 L132,29 L132,28 L130,28 L130,27 L127,27 L127,26 L124,26 L124,25 L122,25 L122,24 L113,24 L113,23 L108,23 L108,24 L102,24 L102,23 L98,23 L98,20 L108,20 L108,18 L116,18 L116,16 L124,16 Z M37,27 L37,26 L35,26 L35,25 L32,25 L32,24 L30,24 L30,23 L26,23 L26,21 L28,21 L28,20 L30,20 L30,18 L38,18 L38,16 L52,16 L52,18 L56,18 L56,20 L58,20 L58,23 L57,23 L57,24 L54,24 L54,25 L52,25 L52,26 L49,26 L49,27 L47,27 L47,28 L41,28 L41,27 L37,27 Z" id="M1" fill="#025830"></path>
                <path d="M23,21 L23,20 L19,20 L19,19 L11,19 L11,18 L2,18 L2,19 L0,19 L0,4 L8,4 L8,6 L20,6 L20,4 L22,4 L22,2 L24,2 L24,0 L42,0 L42,2 L44,2 L44,4 L46,4 L46,6 L48,6 L48,8 L50,8 L50,10 L64,10 L64,12 L66,12 L66,14 L80,14 L80,12 L82,12 L82,10 L84,10 L84,8 L88,8 L88,6 L104,6 L104,8 L106,8 L106,10 L112,10 L112,12 L114,12 L114,14 L118,14 L118,12 L124,12 L124,10 L134,10 L134,4 L136,4 L136,2 L138,2 L138,0 L152,0 L152,2 L156,2 L156,3 L155,3 L155,4 L139,4 L139,5 L142,5 L142,6 L145,6 L145,5 L147,5 L147,6 L146,6 L146,8 L148,8 L148,7 L149,7 L149,6 L151,6 L151,7 L152,7 L152,6 L153,6 L153,5 L155,5 L155,7 L157,7 L157,6 L158,6 L158,4 L159,4 L159,7 L160,7 L160,8 L156,8 L156,9 L153,9 L153,10 L151,10 L151,11 L149,11 L149,12 L147,12 L147,14 L150,14 L150,13 L152,13 L152,11 L154,11 L154,13 L156,13 L156,12 L157,12 L157,11 L158,11 L158,16 L160,16 L160,12 L161,12 L161,8 L162,8 L162,7 L164,7 L164,6 L165,6 L165,9 L167,9 L167,7 L168,7 L168,3 L169,3 L169,5 L170,5 L170,4 L174,4 L174,5 L173,5 L173,6 L172,6 L172,7 L173,7 L173,8 L171,8 L171,9 L169,9 L169,10 L168,10 L168,11 L167,11 L167,12 L166,12 L166,13 L169,13 L169,12 L170,12 L170,11 L171,11 L171,13 L170,13 L170,15 L171,15 L171,14 L172,14 L172,16 L170,16 L170,18 L166,18 L166,20 L158,20 L158,18 L152,18 L152,16 L144,16 L144,18 L140,18 L140,20 L134,20 L134,22 L130,22 L130,20 L128,20 L128,18 L124,18 L124,16 L116,16 L116,18 L108,18 L108,20 L98,20 L98,22 L96,22 L96,21 L92,21 L92,20 L87,20 L87,19 L83,19 L83,20 L79,20 L79,19 L73,19 L73,20 L65,20 L65,22 L58,22 L58,20 L56,20 L56,18 L52,18 L52,16 L38,16 L38,18 L30,18 L30,20 L28,20 L28,21 L26,21 L26,22 L24,22 L24,21 L23,21 Z M174,10 L174,14 L172,14 L172,13 L173,13 L173,10 L174,10 Z M185,4 L185,5 L184,5 L184,8 L183,8 L183,10 L180,10 L180,12 L178,12 L178,7 L179,7 L179,5 L180,5 L180,6 L181,6 L181,7 L182,7 L182,6 L183,6 L183,4 L185,4 Z M155,10 L155,11 L154,11 L154,10 L155,10 Z M197,9 L197,10 L196,10 L196,9 L197,9 Z M159,9 L159,10 L158,10 L158,9 L159,9 Z M186,9 L186,10 L184,10 L184,9 L186,9 Z M200,8 L200,10 L198,10 L198,8 L200,8 Z M193,8 L193,10 L192,10 L192,9 L190,9 L190,8 L193,8 Z M196,8 L196,9 L195,9 L195,8 L196,8 Z M164,5 L164,6 L162,6 L162,7 L160,7 L160,6 L161,6 L161,5 L164,5 Z M171,6 L170,6 L170,7 L171,7 L171,6 Z M200,6 L200,7 L194,7 L194,6 L200,6 Z M156,4 L156,5 L155,5 L155,4 L156,4 Z" id="M0" fill="#2A324B"></path>
                <path d="M38,60 L34,60 L34,62 L32,62 L32,64 L30,64 L30,66 L28,66 L28,64 L26,64 L26,62 L24,62 L24,60 L22,60 L22,58 L14,58 L14,56 L10,56 L10,54 L12,54 L12,52 L18,52 L18,50 L23,50 L23,48 L44,48 L44,46 L49,46 L49,44 L51,44 L51,42 L54,42 L54,41 L55,41 L55,40 L56,40 L56,39 L58,39 L58,38 L65,38 L65,37 L66,37 L66,36 L67,36 L67,35 L68,35 L68,34 L69,34 L69,33 L70,33 L70,32 L73,32 L73,31 L75,31 L75,30 L78,30 L78,29 L86,29 L86,30 L95,30 L95,29 L97,29 L97,28 L99,28 L99,27 L100,27 L100,26 L102,26 L102,25 L104,25 L104,24 L108,24 L108,23 L113,23 L113,24 L122,24 L122,25 L124,25 L124,26 L127,26 L127,27 L130,27 L130,28 L132,28 L132,29 L137,29 L137,31 L139,31 L139,32 L141,32 L141,33 L132,33 L132,32 L130,32 L130,31 L124,31 L124,30 L122,30 L122,29 L116,29 L116,30 L115,30 L115,31 L114,31 L114,32 L113,32 L113,33 L112,33 L112,34 L110,34 L110,33 L109,33 L109,32 L104,32 L104,34 L102,34 L102,36 L101,36 L101,35 L100,35 L100,34 L95,34 L95,35 L94,35 L94,36 L92,36 L92,37 L91,37 L91,38 L90,38 L90,37 L87,37 L87,36 L86,36 L86,35 L81,35 L81,36 L80,36 L80,40 L77,40 L77,41 L76,41 L76,43 L74,43 L74,42 L72,42 L72,43 L71,43 L71,45 L70,45 L70,44 L69,44 L69,43 L65,43 L65,45 L64,45 L64,44 L63,44 L63,43 L61,43 L61,44 L60,44 L60,46 L58,46 L58,47 L53,47 L53,48 L86,48 L86,49 L87,49 L87,50 L90,50 L90,52 L111,52 L111,51 L114,51 L114,50 L113,50 L113,49 L110,49 L110,50 L109,50 L109,49 L108,49 L108,50 L107,50 L107,49 L106,49 L106,50 L105,50 L105,49 L102,49 L102,48 L111,48 L111,47 L110,47 L110,46 L108,46 L108,45 L104,45 L104,46 L103,46 L103,44 L102,44 L102,43 L104,43 L104,44 L106,44 L106,42 L107,42 L107,43 L108,43 L108,44 L110,44 L110,45 L116,45 L116,44 L125,44 L125,43 L127,43 L127,42 L129,42 L129,41 L130,41 L130,40 L131,40 L131,39 L133,39 L133,40 L136,40 L136,38 L137,38 L137,37 L142,37 L142,38 L144,38 L144,33 L155,33 L155,32 L157,32 L157,33 L156,33 L156,34 L155,34 L155,35 L154,35 L154,36 L153,36 L153,37 L152,37 L152,38 L151,38 L151,39 L145,39 L145,40 L144,40 L144,39 L143,39 L143,41 L142,41 L142,39 L141,39 L141,38 L138,38 L138,39 L137,39 L137,42 L133,42 L133,41 L131,41 L131,42 L130,42 L130,43 L129,43 L129,44 L126,44 L126,45 L123,45 L123,46 L135,46 L135,47 L136,47 L136,48 L137,48 L137,49 L136,49 L136,51 L135,51 L135,52 L130,52 L130,50 L116,50 L116,52 L114,52 L114,54 L112,54 L112,56 L111,56 L111,55 L110,55 L110,60 L108,60 L108,58 L106,58 L106,56 L100,56 L100,54 L88,54 L88,52 L86,52 L86,50 L76,50 L76,52 L72,52 L72,54 L70,54 L70,52 L50,52 L50,54 L48,54 L48,56 L46,56 L46,58 L38,58 L38,60 Z M196,51 L196,54 L194,54 L194,51 L196,51 Z M4,51 L4,52 L8,52 L8,54 L0,54 L0,51 L4,51 Z M105,53 L104,53 L104,54 L105,54 L105,53 Z M200,36 L200,54 L197,54 L197,51 L199,51 L199,50 L198,50 L198,49 L194,49 L194,40 L195,40 L195,39 L196,39 L196,37 L198,37 L198,39 L199,39 L199,36 L200,36 Z M96,41 L96,42 L97,42 L97,41 L98,41 L98,42 L102,42 L102,43 L99,43 L99,44 L98,44 L98,45 L97,45 L97,44 L96,44 L96,43 L95,43 L95,42 L93,42 L93,41 L96,41 Z M196,44 L195,44 L195,45 L196,45 L196,44 Z M92,38 L92,40 L93,40 L93,41 L91,41 L91,38 L92,38 Z M153,39 L153,40 L151,40 L151,39 L153,39 Z M143,33 L143,35 L141,35 L141,33 L143,33 Z" id="M4" fill="#026A3A"></path>
            </g>
            <g id="House" transform="translate(117.000000, 201.000000)">
                <path d="M6,49 L6,57 L5,57 L5,49 L6,49 Z M1,51 L1,57 L0,57 L0,51 L1,51 Z M3,49 L3,52 L4,52 L4,57 L2,57 L2,56 L3,56 L3,55 L2,55 L2,49 L3,49 Z M8,49 L8,55 L7,55 L7,49 L8,49 Z M10,49 L10,55 L9,55 L9,49 L10,49 Z M19,23 L19,22 L25,22 L25,23 L24,23 L24,24 L25,24 L25,26 L26,26 L26,27 L27,27 L27,28 L28,28 L28,29 L29,29 L29,31 L30,31 L30,32 L31,32 L31,34 L32,34 L32,35 L33,35 L33,36 L46,36 L46,34 L45,34 L45,33 L44,33 L44,31 L43,31 L43,30 L42,30 L42,29 L41,29 L41,28 L40,28 L40,26 L38,26 L38,24 L33,24 L33,23 L36,23 L36,21 L35,21 L35,20 L36,20 L36,16 L35,16 L35,15 L36,15 L36,14 L34,14 L34,13 L35,13 L35,12 L36,12 L36,13 L37,13 L37,12 L38,12 L38,11 L39,11 L39,10 L40,10 L40,9 L41,9 L41,8 L46,8 L46,9 L47,9 L47,10 L48,10 L48,11 L49,11 L49,12 L50,12 L50,13 L51,13 L51,14 L76,14 L76,13 L77,13 L77,24 L81,24 L81,25 L82,25 L82,26 L80,26 L80,37 L81,37 L81,39 L82,39 L82,38 L83,38 L83,41 L78,41 L78,39 L77,39 L77,55 L12,55 L12,39 L11,39 L11,38 L12,38 L12,36 L11,36 L11,38 L10,38 L10,36 L11,36 L11,35 L12,35 L12,27 L13,27 L13,32 L14,32 L14,34 L13,34 L13,35 L14,35 L14,34 L15,34 L15,33 L16,33 L16,31 L17,31 L17,30 L18,30 L18,29 L19,29 L19,28 L20,28 L20,26 L21,26 L21,24 L20,24 L20,26 L19,26 L19,24 L20,24 L20,23 L19,23 Z M19,42 L18,42 L18,46 L19,46 L19,42 Z M24,42 L23,42 L23,45 L24,45 L24,42 Z M79,26 L77,26 L77,33 L78,33 L78,35 L79,35 L79,26 Z M15,31 L15,32 L14,32 L14,31 L15,31 Z M16,30 L16,31 L15,31 L15,30 L16,30 Z M17,29 L17,30 L16,30 L16,29 L17,29 Z M18,28 L18,29 L17,29 L17,28 L18,28 Z M19,26 L19,28 L18,28 L18,26 L19,26 Z M27,20 L27,23 L31,23 L31,24 L25,24 L25,23 L26,23 L26,20 L27,20 Z M33,22 L33,23 L31,23 L31,22 L33,22 Z M76,12 L76,13 L75,13 L75,12 L76,12 Z M37,11 L37,12 L36,12 L36,11 L37,11 Z M75,11 L75,12 L74,12 L74,11 L75,11 Z M38,10 L38,11 L37,11 L37,10 L38,10 Z M74,10 L74,11 L73,11 L73,10 L74,10 Z M39,9 L39,10 L38,10 L38,9 L39,9 Z M73,9 L73,10 L72,10 L72,9 L73,9 Z M40,8 L40,9 L39,9 L39,8 L40,8 Z M72,8 L72,9 L71,9 L71,8 L72,8 Z M41,7 L41,8 L40,8 L40,7 L41,7 Z M71,7 L71,8 L70,8 L70,7 L71,7 Z M51,0 L51,3 L52,3 L52,6 L64,6 L64,0 L66,0 L66,6 L70,6 L70,7 L41,7 L41,6 L51,6 L51,4 L50,4 L50,0 L51,0 Z" id="House_Body" fill="#423E31"></path>
                <path d="M19,42 L19,46 L18,46 L18,42 L19,42 Z M24,42 L24,45 L23,45 L23,42 L24,42 Z M41,15 L41,19 L40,19 L40,15 L41,15 Z M43,15 L43,18 L42,18 L42,15 L43,15 Z" id="House_lights" fill="#F3D061"></path>
                <path d="M12,36 L12,38 L11,38 L11,36 L12,36 Z M13,35 L13,36 L12,36 L12,35 L13,35 Z M14,34 L14,35 L13,35 L13,34 L14,34 Z M16,31 L16,33 L15,33 L15,34 L14,34 L14,32 L15,32 L15,31 L16,31 Z M45,33 L45,34 L46,34 L46,36 L33,36 L33,35 L32,35 L32,34 L31,34 L31,32 L30,32 L30,31 L29,31 L29,29 L28,29 L28,28 L27,28 L27,27 L26,27 L26,25 L25,25 L25,24 L37,24 L37,25 L38,25 L38,26 L39,26 L39,27 L40,27 L40,28 L41,28 L41,29 L42,29 L42,30 L43,30 L43,31 L44,31 L44,33 L45,33 Z M17,30 L17,31 L16,31 L16,30 L17,30 Z M18,29 L18,30 L17,30 L17,29 L18,29 Z M19,28 L19,29 L18,29 L18,28 L19,28 Z M20,26 L20,28 L19,28 L19,26 L20,26 Z M21,24 L21,26 L20,26 L20,24 L21,24 Z M25,23 L25,24 L24,24 L24,23 L25,23 Z" id="House_Roof_1" fill="#231F1F"></path>
                <path d="M70,6 L70,7 L71,7 L71,8 L72,8 L72,9 L73,9 L73,10 L74,10 L74,11 L75,11 L75,12 L76,12 L76,13 L77,13 L77,14 L51,14 L51,13 L50,13 L50,12 L49,12 L49,11 L48,11 L48,10 L47,10 L47,9 L46,9 L46,8 L45,8 L45,7 L44,7 L44,6 L70,6 Z M36,13 L36,14 L35,14 L35,13 L36,13 Z M37,12 L37,13 L36,13 L36,12 L37,12 Z M38,11 L38,12 L37,12 L37,11 L38,11 Z M39,10 L39,11 L38,11 L38,10 L39,10 Z M40,9 L40,10 L39,10 L39,9 L40,9 Z M41,8 L41,9 L40,9 L40,8 L41,8 Z M42,7 L42,8 L41,8 L41,7 L42,7 Z" id="house_Roof_2" fill="#231F1F"></path>
            </g>
            <g id="Grass" transform="translate(0.000000, 236.000000)">
                <path d="M200,42 L0,42 L0,26 L18,26 L18,24 L46,24 L46,26 L54,26 L54,28 L76,28 L76,26 L80,26 L80,24 L85,24 L85,22 L86,22 L86,20 L106,20 L106,22 L129,22 L129,18 L144,18 L144,16 L152,16 L152,14 L156,14 L156,12 L160,12 L160,10 L168,10 L168,8 L178,8 L178,4 L200,4 L200,42 Z" id="Combined-Shape" fill="#26403F"></path>
                <path d="M61,34 L61,35 L62,35 L62,42 L61,42 L61,37 L60,37 L60,42 L59,42 L59,37 L60,37 L60,34 L61,34 Z M75,39 L75,42 L73,42 L73,41 L72,41 L72,39 L75,39 Z M78,41 L78,42 L77,42 L77,41 L78,41 Z M149,40 L149,42 L148,42 L148,40 L149,40 Z M144,40 L144,42 L141,42 L141,40 L144,40 Z M109,40 L109,42 L108,42 L108,40 L109,40 Z M110,42 L110,40 L111,40 L111,41 L112,41 L112,42 L110,42 Z M97,39 L97,40 L98,40 L98,42 L94,42 L94,40 L95,40 L95,41 L96,41 L96,39 L97,39 Z M186,32 L186,38 L187,38 L187,33 L188,33 L188,32 L189,32 L189,34 L188,34 L188,39 L187,39 L187,42 L186,42 L186,39 L185,39 L185,32 L186,32 Z M106,33 L106,38 L108,38 L108,39 L107,39 L107,41 L106,41 L106,39 L103,39 L103,42 L100,42 L100,40 L101,40 L101,41 L102,41 L102,38 L105,38 L105,33 L106,33 Z M42,40 L42,42 L41,42 L41,40 L42,40 Z M4,38 L4,41 L3,41 L3,42 L2,42 L2,40 L3,40 L3,38 L4,38 Z M23,36 L23,42 L22,42 L22,39 L21,39 L21,40 L20,40 L20,39 L21,39 L21,38 L22,38 L22,36 L23,36 Z M13,37 L13,42 L12,42 L12,37 L13,37 Z M92,36 L92,39 L93,39 L93,42 L92,42 L92,40 L91,40 L91,37 L90,37 L90,36 L92,36 Z M48,36 L48,42 L47,42 L47,36 L48,36 Z M11,33 L11,36 L12,36 L12,37 L11,37 L11,42 L10,42 L10,33 L11,33 Z M33,34 L33,42 L32,42 L32,34 L33,34 Z M21,41 L21,42 L20,42 L20,41 L21,41 Z M6,38 L6,42 L5,42 L5,38 L6,38 Z M82,36 L82,37 L86,37 L86,36 L88,36 L88,39 L87,39 L87,42 L86,42 L86,38 L81,38 L81,36 L82,36 Z M52,35 L52,36 L53,36 L53,42 L52,42 L52,37 L51,37 L51,40 L50,40 L50,38 L49,38 L49,36 L50,36 L50,37 L51,37 L51,35 L52,35 Z M71,40 L71,41 L70,41 L70,40 L71,40 Z M35,35 L35,41 L34,41 L34,35 L35,35 Z M15,38 L15,41 L14,41 L14,38 L15,38 Z M66,38 L66,41 L65,41 L65,38 L66,38 Z M80,40 L80,41 L79,41 L79,40 L80,40 Z M19,34 L19,37 L20,37 L20,39 L19,39 L19,38 L18,38 L18,40 L17,40 L17,39 L16,39 L16,38 L18,38 L18,34 L19,34 Z M68,38 L68,40 L67,40 L67,38 L68,38 Z M64,37 L64,40 L63,40 L63,37 L64,37 Z M71,31 L71,36 L72,36 L72,39 L71,39 L71,37 L70,37 L70,40 L69,40 L69,36 L70,36 L70,31 L71,31 Z M57,38 L57,40 L56,40 L56,38 L57,38 Z M39,35 L39,37 L38,37 L38,38 L40,38 L40,37 L41,37 L41,39 L40,39 L40,40 L37,40 L37,36 L38,36 L38,35 L39,35 Z M157,29 L157,30 L158,30 L158,37 L159,37 L159,39 L158,39 L158,38 L157,38 L157,31 L156,31 L156,29 L157,29 Z M161,37 L161,39 L160,39 L160,37 L161,37 Z M155,36 L155,37 L156,37 L156,39 L155,39 L155,38 L154,38 L154,36 L155,36 Z M146,36 L146,39 L145,39 L145,36 L146,36 Z M44,34 L44,39 L43,39 L43,34 L44,34 Z M152,37 L152,39 L151,39 L151,37 L152,37 Z M77,35 L77,37 L79,37 L79,36 L80,36 L80,38 L76,38 L76,39 L75,39 L75,37 L76,37 L76,35 L77,35 Z M129,33 L129,38 L127,38 L127,35 L128,35 L128,33 L129,33 Z M140,34 L140,38 L139,38 L139,34 L140,34 Z M133,29 L133,38 L132,38 L132,29 L133,29 Z M167,33 L167,35 L166,35 L166,38 L165,38 L165,34 L166,34 L166,33 L167,33 Z M97,37 L97,38 L96,38 L96,37 L97,37 Z M135,28 L135,38 L134,38 L134,28 L135,28 Z M183,33 L183,34 L184,34 L184,38 L183,38 L183,35 L182,35 L182,33 L183,33 Z M180,35 L180,38 L179,38 L179,35 L180,35 Z M2,28 L2,37 L1,37 L1,38 L0,38 L0,31 L1,31 L1,29 L0,29 L0,28 L2,28 Z M111,29 L111,32 L112,32 L112,30 L113,30 L113,33 L112,33 L112,36 L111,36 L111,33 L110,33 L110,38 L109,38 L109,33 L110,33 L110,29 L111,29 Z M164,36 L164,38 L163,38 L163,36 L164,36 Z M177,28 L177,37 L176,37 L176,28 L177,28 Z M143,34 L143,37 L142,37 L142,34 L143,34 Z M191,33 L191,37 L190,37 L190,33 L191,33 Z M150,34 L150,37 L149,37 L149,34 L150,34 Z M119,36 L119,37 L118,37 L118,36 L119,36 Z M160,28 L160,37 L159,37 L159,28 L160,28 Z M102,34 L102,37 L101,37 L101,36 L100,36 L100,34 L102,34 Z M148,35 L148,37 L147,37 L147,35 L148,35 Z M168,35 L168,37 L167,37 L167,35 L168,35 Z M124,35 L124,37 L123,37 L123,36 L122,36 L122,35 L124,35 Z M138,32 L138,37 L137,37 L137,32 L138,32 Z M196,33 L196,34 L197,34 L197,36 L196,36 L196,35 L195,35 L195,33 L196,33 Z M59,34 L59,36 L58,36 L58,34 L59,34 Z M200,34 L200,36 L198,36 L198,34 L200,34 Z M194,32 L194,36 L193,36 L193,32 L194,32 Z M96,32 L96,36 L95,36 L95,32 L96,32 Z M163,27 L163,36 L162,36 L162,27 L163,27 Z M22,32 L22,36 L21,36 L21,32 L22,32 Z M55,29 L55,36 L54,36 L54,29 L55,29 Z M92,25 L92,28 L93,28 L93,36 L92,36 L92,33 L91,33 L91,29 L90,29 L90,28 L91,28 L91,25 L92,25 Z M49,34 L49,36 L48,36 L48,34 L49,34 Z M51,32 L51,35 L50,35 L50,32 L51,32 Z M9,33 L9,35 L8,35 L8,33 L9,33 Z M127,33 L127,35 L126,35 L126,33 L127,33 Z M68,33 L68,35 L67,35 L67,33 L68,33 Z M76,34 L76,35 L75,35 L75,34 L76,34 Z M36,33 L36,35 L35,35 L35,33 L36,33 Z M86,30 L86,31 L85,31 L85,35 L84,35 L84,30 L86,30 Z M116,32 L116,35 L115,35 L115,32 L116,32 Z M27,32 L27,35 L25,35 L25,34 L26,34 L26,32 L27,32 Z M18,31 L18,34 L17,34 L17,31 L18,31 Z M87,31 L87,34 L86,34 L86,31 L87,31 Z M45,30 L45,34 L44,34 L44,30 L45,30 Z M13,32 L13,34 L12,34 L12,32 L13,32 Z M42,32 L42,34 L41,34 L41,32 L42,32 Z M65,27 L65,29 L66,29 L66,34 L65,34 L65,30 L64,30 L64,27 L65,27 Z M7,31 L7,32 L6,32 L6,34 L5,34 L5,31 L7,31 Z M34,31 L34,34 L33,34 L33,31 L34,31 Z M80,30 L80,34 L79,34 L79,30 L80,30 Z M149,25 L149,33 L148,33 L148,25 L149,25 Z M192,29 L192,33 L191,33 L191,29 L192,29 Z M30,32 L30,33 L28,33 L28,32 L30,32 Z M107,29 L107,33 L106,33 L106,29 L107,29 Z M128,30 L128,33 L127,33 L127,30 L128,30 Z M4,30 L4,33 L3,33 L3,30 L4,30 Z M38,31 L38,33 L37,33 L37,31 L38,31 Z M8,32 L8,33 L7,33 L7,32 L8,32 Z M89,28 L89,33 L88,33 L88,29 L87,29 L87,28 L89,28 Z M78,30 L78,33 L77,33 L77,30 L78,30 Z M41,28 L41,32 L40,32 L40,28 L41,28 Z M195,30 L195,32 L194,32 L194,30 L195,30 Z M187,27 L187,32 L186,32 L186,27 L187,27 Z M102,30 L102,32 L100,32 L100,30 L102,30 Z M63,23 L63,32 L62,32 L62,23 L63,23 Z M95,29 L95,32 L94,32 L94,29 L95,29 Z M117,29 L117,30 L118,30 L118,31 L117,31 L117,32 L116,32 L116,29 L117,29 Z M24,29 L24,31 L23,31 L23,29 L24,29 Z M16,28 L16,29 L17,29 L17,31 L16,31 L16,30 L15,30 L15,29 L14,29 L14,28 L16,28 Z M47,29 L47,31 L46,31 L46,29 L47,29 Z M60,24 L60,31 L59,31 L59,24 L60,24 Z M98,28 L98,31 L96,31 L96,28 L98,28 Z M34,24 L34,25 L35,25 L35,24 L36,24 L36,29 L35,29 L35,31 L34,31 L34,27 L33,27 L33,24 L34,24 Z M57,22 L57,25 L58,25 L58,30 L57,30 L57,26 L56,26 L56,22 L57,22 Z M23,19 L23,26 L24,26 L24,24 L25,24 L25,27 L24,27 L24,28 L22,28 L22,30 L21,30 L21,27 L20,27 L20,22 L21,22 L21,26 L22,26 L22,19 L23,19 Z M29,21 L29,24 L28,24 L28,28 L29,28 L29,30 L28,30 L28,29 L27,29 L27,28 L26,28 L26,26 L27,26 L27,23 L28,23 L28,21 L29,21 Z M71,26 L71,28 L76,28 L76,30 L71,30 L71,29 L70,29 L70,26 L71,26 Z M121,29 L121,30 L120,30 L120,29 L121,29 Z M5,18 L5,29 L6,29 L6,30 L4,30 L4,18 L5,18 Z M104,27 L104,30 L103,30 L103,27 L104,27 Z M52,28 L52,30 L50,30 L50,28 L52,28 Z M126,26 L126,27 L127,27 L127,30 L126,30 L126,28 L125,28 L125,26 L126,26 Z M144,26 L144,29 L143,29 L143,30 L142,30 L142,27 L143,27 L143,26 L144,26 Z M8,21 L8,23 L9,23 L9,29 L8,29 L8,26 L7,26 L7,28 L6,28 L6,25 L7,25 L7,21 L8,21 Z M194,25 L194,27 L193,27 L193,29 L192,29 L192,26 L193,26 L193,25 L194,25 Z M132,27 L132,29 L131,29 L131,27 L132,27 Z M84,28 L84,29 L83,29 L83,28 L84,28 Z M113,24 L113,27 L112,27 L112,29 L111,29 L111,26 L112,26 L112,24 L113,24 Z M108,27 L108,29 L107,29 L107,27 L108,27 Z M18,26 L18,27 L20,27 L20,28 L16,28 L16,27 L15,27 L15,26 L18,26 Z M45,21 L45,26 L44,26 L44,28 L43,28 L43,24 L44,24 L44,21 L45,21 Z M159,26 L159,28 L158,28 L158,26 L159,26 Z M79,24 L79,27 L78,27 L78,28 L76,28 L76,26 L78,26 L78,24 L79,24 Z M83,23 L83,28 L82,28 L82,23 L83,23 Z M43,20 L43,22 L42,22 L42,27 L41,27 L41,21 L42,21 L42,20 L43,20 Z M32,22 L32,23 L33,23 L33,24 L32,24 L32,27 L31,27 L31,22 L32,22 Z M189,24 L189,25 L188,25 L188,27 L187,27 L187,24 L189,24 Z M13,25 L13,26 L12,26 L12,25 L13,25 Z M88,24 L88,26 L87,26 L87,24 L88,24 Z M2,23 L2,26 L0,26 L0,24 L1,24 L1,23 L2,23 Z M85,21 L85,26 L84,26 L84,21 L85,21 Z M70,23 L70,26 L69,26 L69,23 L70,23 Z M176,22 L176,24 L174,24 L174,23 L175,23 L175,22 L176,22 Z M59,23 L59,24 L58,24 L58,23 L59,23 Z M114,23 L114,24 L113,24 L113,23 L114,23 Z M94,22 L94,24 L92,24 L92,23 L93,23 L93,22 L94,22 Z M112,22 L112,24 L110,24 L110,23 L111,23 L111,22 L112,22 Z M35,23 L35,24 L34,24 L34,23 L35,23 Z M40,23 L40,24 L39,24 L39,23 L40,23 Z M26,21 L26,24 L25,24 L25,21 L26,21 Z M87,22 L87,24 L86,24 L86,22 L87,22 Z M107,16 L107,18 L106,18 L106,23 L105,23 L105,17 L106,17 L106,16 L107,16 Z M105,13 L105,15 L104,15 L104,19 L103,19 L103,20 L104,20 L104,22 L103,22 L103,21 L102,21 L102,23 L101,23 L101,20 L102,20 L102,18 L103,18 L103,14 L104,14 L104,13 L105,13 Z M92,22 L92,23 L91,23 L91,22 L92,22 Z M82,19 L82,23 L81,23 L81,19 L82,19 Z M98,12 L98,23 L97,23 L97,12 L98,12 Z M100,14 L100,23 L99,23 L99,14 L100,14 Z M126,17 L126,23 L125,23 L125,17 L126,17 Z M153,19 L153,21 L154,21 L154,23 L153,23 L153,22 L152,22 L152,19 L153,19 Z M10,19 L10,23 L9,23 L9,19 L10,19 Z M93,11 L93,17 L92,17 L92,19 L93,19 L93,22 L92,22 L92,20 L91,20 L91,22 L89,22 L89,20 L91,20 L91,16 L92,16 L92,11 L93,11 Z M115,19 L115,22 L114,22 L114,19 L115,19 Z M120,14 L120,17 L121,17 L121,22 L119,22 L119,21 L120,21 L120,20 L119,20 L119,14 L120,14 Z M131,15 L131,22 L130,22 L130,15 L131,15 Z M56,20 L56,22 L55,22 L55,20 L56,20 Z M118,16 L118,22 L117,22 L117,16 L118,16 Z M111,21 L111,22 L109,22 L109,21 L111,21 Z M128,15 L128,22 L127,22 L127,15 L128,15 Z M113,21 L113,22 L112,22 L112,21 L113,21 Z M27,19 L27,21 L26,21 L26,19 L27,19 Z M47,18 L47,19 L46,19 L46,21 L45,21 L45,18 L47,18 Z M30,20 L30,21 L29,21 L29,20 L30,20 Z M134,15 L134,18 L136,18 L136,20 L133,20 L133,15 L134,15 Z M89,19 L89,20 L88,20 L88,19 L89,19 Z M163,14 L163,19 L162,19 L162,15 L161,15 L161,14 L163,14 Z M146,11 L146,19 L145,19 L145,11 L146,11 Z M25,13 L25,16 L24,16 L24,19 L23,19 L23,15 L24,15 L24,13 L25,13 Z M114,17 L114,19 L113,19 L113,17 L114,17 Z M28,16 L28,19 L27,19 L27,16 L28,16 Z M11,16 L11,19 L10,19 L10,16 L11,16 Z M80,15 L80,16 L81,16 L81,19 L80,19 L80,17 L79,17 L79,15 L80,15 Z M138,16 L138,18 L139,18 L139,19 L137,19 L137,16 L138,16 Z M143,8 L143,11 L142,11 L142,19 L141,19 L141,10 L142,10 L142,8 L143,8 Z M140,14 L140,18 L139,18 L139,14 L140,14 Z M188,13 L188,18 L187,18 L187,13 L188,13 Z M167,17 L167,18 L166,18 L166,17 L167,17 Z M192,9 L192,10 L191,10 L191,12 L190,12 L190,18 L189,18 L189,11 L190,11 L190,9 L192,9 Z M165,17 L165,18 L164,18 L164,17 L165,17 Z M4,15 L4,18 L3,18 L3,15 L4,15 Z M158,8 L158,15 L157,15 L157,17 L156,17 L156,13 L157,13 L157,8 L158,8 Z M192,14 L192,17 L191,17 L191,14 L192,14 Z M29,15 L29,16 L28,16 L28,15 L29,15 Z M132,11 L132,15 L131,15 L131,11 L132,11 Z M30,13 L30,15 L29,15 L29,13 L30,13 Z M130,9 L130,11 L129,11 L129,15 L128,15 L128,10 L129,10 L129,9 L130,9 Z M103,5 L103,8 L102,8 L102,11 L101,11 L101,14 L100,14 L100,10 L101,10 L101,7 L102,7 L102,5 L103,5 Z M139,10 L139,14 L138,14 L138,10 L139,10 Z M31,11 L31,13 L30,13 L30,11 L31,11 Z M156,9 L156,13 L155,13 L155,9 L156,9 Z M160,6 L160,13 L159,13 L159,6 L160,6 Z M100,6 L100,9 L99,9 L99,12 L98,12 L98,8 L99,8 L99,6 L100,6 Z M163,7 L163,12 L162,12 L162,7 L163,7 Z M181,10 L181,12 L180,12 L180,10 L181,10 Z M185,9 L185,12 L184,12 L184,9 L185,9 Z M194,10 L194,11 L193,11 L193,10 L194,10 Z M196,10 L196,11 L195,11 L195,10 L196,10 Z M183,9 L183,11 L182,11 L182,9 L183,9 Z M197,3 L197,7 L198,7 L198,9 L197,9 L197,8 L196,8 L196,3 L197,3 Z M157,4 L157,8 L156,8 L156,4 L157,4 Z M194,0 L194,1 L195,1 L195,8 L194,8 L194,2 L193,2 L193,0 L194,0 Z M101,5 L101,6 L100,6 L100,5 L101,5 Z M104,4 L104,5 L103,5 L103,4 L104,4 Z M156,1 L156,4 L155,4 L155,1 L156,1 Z" id="Combined-Shape" fill="#23503B"></path>
            </g>
            <path d="M189,2 L189,4 L190,4 L190,6 L189,6 L189,10 L190,10 L190,22 L192,22 L192,24 L191,24 L191,23 L190,23 L190,31 L191,31 L191,32 L192,32 L192,33 L190,33 L190,39 L192,39 L192,41 L191,41 L191,40 L190,40 L190,45 L192,45 L192,46 L190,46 L190,52 L191,52 L191,53 L192,53 L192,54 L190,54 L190,72 L191,72 L191,73 L193,73 L193,74 L192,74 L192,75 L191,75 L191,74 L190,74 L190,92 L197,92 L197,93 L196,93 L196,94 L194,94 L194,95 L192,95 L192,93 L190,93 L190,97 L191,97 L191,98 L190,98 L190,100 L188,100 L188,104 L190,104 L190,111 L192,111 L192,113 L193,113 L193,114 L194,114 L194,115 L195,115 L195,116 L194,116 L194,118 L192,118 L192,116 L191,116 L191,113 L190,113 L190,112 L189,112 L189,111 L188,111 L188,116 L190,116 L190,117 L188,117 L188,122 L190,122 L190,124 L188,124 L188,128 L190,128 L190,137 L193,137 L193,138 L200,138 L200,139 L199,139 L199,140 L197,140 L197,139 L195,139 L195,140 L196,140 L196,141 L195,141 L195,142 L193,142 L193,141 L192,141 L192,139 L191,139 L191,138 L190,138 L190,153 L191,153 L191,157 L192,157 L192,159 L193,159 L193,160 L194,160 L194,162 L195,162 L195,163 L196,163 L196,164 L195,164 L195,165 L196,165 L196,168 L194,168 L194,167 L193,167 L193,163 L192,163 L192,162 L191,162 L191,158 L190,158 L190,182 L192,182 L192,181 L195,181 L195,182 L194,182 L194,183 L200,183 L200,184 L198,184 L198,186 L197,186 L197,185 L196,185 L196,187 L194,187 L194,186 L193,186 L193,184 L192,184 L192,183 L190,183 L190,185 L192,185 L192,186 L190,186 L190,192 L192,192 L192,193 L190,193 L190,194 L191,194 L191,196 L192,196 L192,197 L193,197 L193,198 L195,198 L195,199 L196,199 L196,200 L197,200 L197,201 L200,201 L200,203 L199,203 L199,202 L198,202 L198,204 L199,204 L199,206 L197,206 L197,204 L196,204 L196,201 L195,201 L195,205 L194,205 L194,204 L193,204 L193,199 L192,199 L192,198 L190,198 L190,207 L191,207 L191,206 L192,206 L192,208 L191,208 L191,209 L193,209 L193,210 L200,210 L200,211 L198,211 L198,212 L199,212 L199,215 L198,215 L198,213 L196,213 L196,215 L194,215 L194,213 L193,213 L193,212 L192,212 L192,214 L190,214 L190,219 L194,219 L194,221 L191,221 L191,220 L190,220 L190,228 L188,228 L188,233 L189,233 L189,247 L186,247 L186,245 L182,245 L182,228 L184,228 L184,221 L182,221 L182,219 L181,219 L181,217 L180,217 L180,219 L179,219 L179,215 L180,215 L180,216 L182,216 L182,217 L184,217 L184,216 L183,216 L183,213 L185,213 L185,211 L184,211 L184,212 L182,212 L182,211 L181,211 L181,207 L180,207 L180,206 L182,206 L182,204 L186,204 L186,202 L184,202 L184,200 L186,200 L186,185 L184,185 L184,186 L183,186 L183,184 L184,184 L184,181 L185,181 L185,180 L183,180 L183,182 L182,182 L182,183 L181,183 L181,182 L180,182 L180,181 L179,181 L179,183 L178,183 L178,192 L179,192 L179,191 L180,191 L180,190 L181,190 L181,189 L182,189 L182,186 L183,186 L183,187 L184,187 L184,192 L183,192 L183,189 L182,189 L182,194 L181,194 L181,195 L180,195 L180,192 L179,192 L179,195 L180,195 L180,196 L179,196 L179,197 L178,197 L178,202 L180,202 L180,203 L178,203 L178,204 L179,204 L179,205 L180,205 L180,206 L179,206 L179,207 L178,207 L178,209 L179,209 L179,210 L178,210 L178,212 L177,212 L177,213 L178,213 L178,214 L179,214 L179,215 L177,215 L177,217 L176,217 L176,220 L178,220 L178,224 L177,224 L177,226 L178,226 L178,228 L177,228 L177,232 L178,232 L178,235 L177,235 L177,238 L178,238 L178,239 L177,239 L177,240 L178,240 L178,250 L179,250 L179,252 L181,252 L181,254 L174,254 L174,253 L173,253 L173,254 L168,254 L168,252 L169,252 L169,248 L170,248 L170,239 L169,239 L169,236 L170,236 L170,235 L169,235 L169,234 L170,234 L170,230 L169,230 L169,232 L168,232 L168,230 L169,230 L169,229 L170,229 L170,222 L168,222 L168,221 L169,221 L169,220 L170,220 L170,215 L169,215 L169,216 L167,216 L167,217 L166,217 L166,215 L168,215 L168,214 L169,214 L169,213 L170,213 L170,206 L172,206 L172,203 L171,203 L171,205 L170,205 L170,206 L169,206 L169,208 L168,208 L168,205 L167,205 L167,203 L166,203 L166,208 L164,208 L164,206 L163,206 L163,208 L162,208 L162,210 L161,210 L161,209 L159,209 L159,207 L160,207 L160,206 L161,206 L161,205 L158,205 L158,206 L157,206 L157,207 L156,207 L156,208 L154,208 L154,206 L148,206 L148,205 L146,205 L146,204 L152,204 L152,205 L155,205 L155,204 L161,204 L161,203 L160,203 L160,202 L159,202 L159,200 L160,200 L160,201 L162,201 L162,202 L163,202 L163,203 L165,203 L165,202 L167,202 L167,200 L168,200 L168,201 L169,201 L169,200 L171,200 L171,199 L172,199 L172,197 L169,197 L169,196 L171,196 L171,195 L172,195 L172,192 L174,192 L174,186 L173,186 L173,189 L172,189 L172,190 L171,190 L171,191 L170,191 L170,189 L171,189 L171,187 L170,187 L170,188 L169,188 L169,189 L166,189 L166,188 L167,188 L167,187 L168,187 L168,186 L169,186 L169,185 L171,185 L171,184 L173,184 L173,183 L172,183 L172,182 L173,182 L173,181 L174,181 L174,175 L173,175 L173,173 L174,173 L174,168 L172,168 L172,169 L173,169 L173,170 L171,170 L171,171 L170,171 L170,169 L171,169 L171,168 L172,168 L172,166 L173,166 L173,164 L174,164 L174,163 L173,163 L173,161 L174,161 L174,160 L172,160 L172,159 L171,159 L171,156 L172,156 L172,154 L170,154 L170,155 L167,155 L167,158 L165,158 L165,160 L163,160 L163,159 L162,159 L162,157 L161,157 L161,159 L160,159 L160,160 L158,160 L158,161 L156,161 L156,159 L157,159 L157,158 L158,158 L158,157 L157,157 L157,158 L155,158 L155,159 L152,159 L152,158 L151,158 L151,157 L152,157 L152,156 L154,156 L154,155 L153,155 L153,154 L154,154 L154,153 L151,153 L151,154 L150,154 L150,155 L147,155 L147,154 L145,154 L145,153 L149,153 L149,152 L151,152 L151,151 L153,151 L153,152 L156,152 L156,151 L158,151 L158,150 L161,150 L161,151 L160,151 L160,152 L159,152 L159,154 L158,154 L158,155 L157,155 L157,156 L162,156 L162,155 L166,155 L166,154 L168,154 L168,153 L167,153 L167,152 L166,152 L166,151 L170,151 L170,153 L172,153 L172,137 L171,137 L171,140 L170,140 L170,136 L171,136 L171,133 L172,133 L172,130 L168,130 L168,128 L172,128 L172,124 L169,124 L169,121 L170,121 L170,120 L169,120 L169,121 L168,121 L168,125 L167,125 L167,126 L166,126 L166,128 L164,128 L164,125 L163,125 L163,126 L162,126 L162,128 L161,128 L161,130 L160,130 L160,131 L159,131 L159,130 L158,130 L158,128 L159,128 L159,127 L157,127 L157,128 L155,128 L155,129 L153,129 L153,130 L150,130 L150,129 L149,129 L149,128 L151,128 L151,127 L154,127 L154,126 L155,126 L155,127 L156,127 L156,126 L159,126 L159,125 L160,125 L160,124 L163,124 L163,123 L165,123 L165,122 L166,122 L166,121 L167,121 L167,120 L169,120 L169,119 L170,119 L170,112 L168,112 L168,114 L165,114 L165,111 L163,111 L163,112 L162,112 L162,113 L161,113 L161,114 L162,114 L162,117 L161,117 L161,115 L160,115 L160,118 L159,118 L159,119 L158,119 L158,115 L157,115 L157,117 L156,117 L156,118 L155,118 L155,116 L154,116 L154,118 L153,118 L153,119 L151,119 L151,117 L152,117 L152,116 L151,116 L151,117 L148,117 L148,116 L151,116 L151,115 L155,115 L155,114 L157,114 L157,113 L160,113 L160,112 L159,112 L159,110 L165,110 L165,109 L166,109 L166,108 L167,108 L167,107 L168,107 L168,110 L170,110 L170,108 L169,108 L169,107 L170,107 L170,106 L169,106 L169,107 L168,107 L168,105 L169,105 L169,104 L170,104 L170,103 L169,103 L169,104 L165,104 L165,103 L166,103 L166,102 L168,102 L168,101 L170,101 L170,88 L168,88 L168,81 L167,81 L167,80 L166,80 L166,81 L164,81 L164,82 L163,82 L163,83 L161,83 L161,82 L162,82 L162,81 L161,81 L161,82 L160,82 L160,85 L161,85 L161,87 L159,87 L159,85 L158,85 L158,87 L157,87 L157,88 L155,88 L155,86 L156,86 L156,84 L157,84 L157,83 L156,83 L156,84 L154,84 L154,87 L153,87 L153,88 L151,88 L151,87 L152,87 L152,85 L151,85 L151,86 L150,86 L150,87 L149,87 L149,88 L148,88 L148,89 L146,89 L146,87 L147,87 L147,86 L145,86 L145,87 L141,87 L141,86 L144,86 L144,85 L150,85 L150,84 L153,84 L153,83 L156,83 L156,82 L157,82 L157,81 L156,81 L156,80 L158,80 L158,81 L160,81 L160,80 L159,80 L159,78 L164,78 L164,77 L162,77 L162,75 L167,75 L167,74 L168,74 L168,76 L170,76 L170,73 L169,73 L169,74 L168,74 L168,72 L169,72 L169,71 L170,71 L170,67 L168,67 L168,68 L166,68 L166,67 L168,67 L168,66 L169,66 L169,65 L170,65 L170,62 L167,62 L167,63 L166,63 L166,64 L165,64 L165,63 L164,63 L164,65 L162,65 L162,64 L161,64 L161,65 L160,65 L160,64 L159,64 L159,63 L162,63 L162,62 L166,62 L166,61 L168,61 L168,50 L166,50 L166,48 L168,48 L168,41 L167,41 L167,42 L164,42 L164,41 L166,41 L166,40 L167,40 L167,39 L168,39 L168,34 L167,34 L167,33 L168,33 L168,19 L169,19 L169,25 L170,25 L170,36 L171,36 L171,37 L173,37 L173,38 L170,38 L170,45 L171,45 L171,47 L170,47 L170,54 L171,54 L171,55 L172,55 L172,56 L175,56 L175,57 L177,57 L177,58 L182,58 L182,59 L181,59 L181,60 L180,60 L180,59 L179,59 L179,61 L177,61 L177,60 L176,60 L176,58 L174,58 L174,60 L173,60 L173,57 L171,57 L171,56 L170,56 L170,60 L172,60 L172,75 L174,75 L174,74 L176,74 L176,73 L175,73 L175,72 L173,72 L173,70 L177,70 L177,71 L181,71 L181,70 L182,70 L182,69 L183,69 L183,68 L184,68 L184,67 L185,67 L185,65 L186,65 L186,63 L187,63 L187,61 L188,61 L188,58 L187,58 L187,59 L186,59 L186,58 L187,58 L187,56 L188,56 L188,51 L187,51 L187,52 L185,52 L185,53 L182,53 L182,54 L179,54 L179,55 L177,55 L177,54 L178,54 L178,53 L181,53 L181,52 L184,52 L184,51 L186,51 L186,50 L187,50 L187,49 L188,49 L188,44 L186,44 L186,42 L188,42 L188,39 L187,39 L187,40 L186,40 L186,41 L184,41 L184,42 L182,42 L182,41 L183,41 L183,40 L185,40 L185,39 L187,39 L187,37 L188,37 L188,28 L186,28 L186,29 L182,29 L182,28 L186,28 L186,26 L188,26 L188,20 L187,20 L187,19 L188,19 L188,14 L189,14 L189,12 L188,12 L188,2 L189,2 Z M196,220 L196,221 L195,221 L195,220 L196,220 Z M186,213 L185,213 L185,214 L186,214 L186,213 Z M196,211 L195,211 L195,212 L196,212 L196,211 Z M192,211 L190,211 L190,212 L192,212 L192,211 Z M184,208 L183,208 L183,211 L184,211 L184,208 Z M186,206 L182,206 L182,207 L185,207 L185,208 L186,208 L186,206 Z M169,202 L168,202 L168,204 L169,204 L169,202 Z M168,197 L168,198 L167,198 L167,197 L168,197 Z M162,183 L162,184 L161,184 L161,188 L160,188 L160,192 L158,192 L158,187 L157,187 L157,188 L156,188 L156,189 L154,189 L154,187 L155,187 L155,186 L154,186 L154,187 L152,187 L152,189 L150,189 L150,190 L147,190 L147,188 L149,188 L149,187 L151,187 L151,186 L153,186 L153,185 L156,185 L156,184 L160,184 L160,183 L162,183 Z M159,185 L158,185 L158,186 L159,186 L159,185 Z M170,171 L170,172 L171,172 L171,175 L173,175 L173,176 L171,176 L171,180 L170,180 L170,181 L169,181 L169,179 L168,179 L168,183 L167,183 L167,185 L165,185 L165,182 L164,182 L164,183 L162,183 L162,182 L164,182 L164,181 L161,181 L161,182 L160,182 L160,183 L159,183 L159,180 L160,180 L160,178 L159,178 L159,180 L158,180 L158,182 L157,182 L157,183 L155,183 L155,181 L156,181 L156,180 L155,180 L155,181 L153,181 L153,182 L152,182 L152,183 L151,183 L151,182 L149,182 L149,183 L148,183 L148,184 L146,184 L146,182 L147,182 L147,181 L145,181 L145,182 L142,182 L142,181 L139,181 L139,180 L155,180 L155,179 L157,179 L157,178 L159,178 L159,177 L161,177 L161,176 L164,176 L164,175 L165,175 L165,174 L166,174 L166,173 L168,173 L168,172 L169,172 L169,171 L170,171 Z M196,184 L195,184 L195,185 L196,185 L196,184 Z M171,182 L171,183 L170,183 L170,182 L171,182 Z M188,176 L187,176 L187,179 L186,179 L186,180 L188,180 L188,176 Z M168,174 L166,174 L166,176 L165,176 L165,177 L164,177 L164,178 L162,178 L162,180 L163,180 L163,179 L167,179 L167,176 L168,176 L168,174 Z M186,160 L185,160 L185,166 L184,166 L184,168 L183,168 L183,167 L182,167 L182,166 L181,166 L181,172 L179,172 L179,174 L180,174 L180,176 L179,176 L179,175 L178,175 L178,179 L179,179 L179,177 L180,177 L180,176 L181,176 L181,175 L182,175 L182,174 L183,174 L183,176 L184,176 L184,179 L185,179 L185,178 L186,178 L186,172 L188,172 L188,170 L186,170 L186,172 L185,172 L185,174 L183,174 L183,173 L184,173 L184,171 L185,171 L185,168 L186,168 L186,160 Z M198,165 L198,166 L199,166 L199,167 L200,167 L200,168 L199,168 L199,172 L198,172 L198,171 L197,171 L197,165 L198,165 Z M179,169 L178,169 L178,171 L179,171 L179,169 Z M177,130 L176,130 L176,142 L178,142 L178,144 L177,144 L177,143 L176,143 L176,150 L178,150 L178,148 L180,148 L180,147 L181,147 L181,146 L183,146 L183,147 L182,147 L182,150 L181,150 L181,153 L180,153 L180,154 L179,154 L179,150 L178,150 L178,168 L179,168 L179,167 L180,167 L180,165 L181,165 L181,164 L182,164 L182,163 L183,163 L183,161 L184,161 L184,159 L185,159 L185,157 L186,157 L186,155 L185,155 L185,156 L184,156 L184,155 L182,155 L182,154 L186,154 L186,152 L184,152 L184,151 L186,151 L186,146 L188,146 L188,142 L187,142 L187,143 L186,143 L186,144 L185,144 L185,145 L184,145 L184,146 L183,146 L183,144 L184,144 L184,143 L183,143 L183,142 L182,142 L182,141 L184,141 L184,142 L185,142 L185,139 L184,139 L184,137 L183,137 L183,135 L182,135 L182,138 L183,138 L183,139 L181,139 L181,140 L180,140 L180,139 L179,139 L179,137 L178,137 L178,136 L179,136 L179,135 L178,135 L178,132 L177,132 L177,130 Z M197,164 L197,165 L196,165 L196,164 L197,164 Z M174,157 L173,157 L173,158 L174,158 L174,157 Z M164,156 L163,156 L163,157 L164,157 L164,156 Z M144,154 L144,155 L142,155 L142,154 L144,154 Z M169,142 L169,147 L168,147 L168,149 L167,149 L167,150 L166,150 L166,147 L165,147 L165,150 L164,150 L164,152 L163,152 L163,153 L162,153 L162,150 L163,150 L163,149 L162,149 L162,150 L161,150 L161,149 L160,149 L160,147 L165,147 L165,146 L166,146 L166,145 L167,145 L167,144 L168,144 L168,142 L169,142 Z M181,144 L181,145 L180,145 L180,144 L181,144 Z M180,143 L180,144 L179,144 L179,143 L180,143 Z M170,140 L170,142 L169,142 L169,140 L170,140 Z M188,138 L187,138 L187,140 L188,140 L188,138 Z M185,92 L184,92 L184,95 L183,95 L183,96 L181,96 L181,95 L180,95 L180,97 L179,97 L179,99 L181,99 L181,100 L179,100 L179,102 L175,102 L175,101 L174,101 L174,103 L173,103 L173,105 L172,105 L172,115 L173,115 L173,116 L172,116 L172,117 L173,117 L173,118 L174,118 L174,120 L173,120 L173,122 L174,122 L174,124 L176,124 L176,128 L177,128 L177,129 L178,129 L178,130 L179,130 L179,131 L180,131 L180,130 L181,130 L181,132 L180,132 L180,133 L182,133 L182,134 L184,134 L184,135 L186,135 L186,130 L183,130 L183,129 L186,129 L186,108 L188,108 L188,106 L186,106 L186,102 L185,102 L185,104 L184,104 L184,105 L183,105 L183,107 L182,107 L182,111 L181,111 L181,114 L180,114 L180,116 L179,116 L179,118 L178,118 L178,119 L176,119 L176,117 L177,117 L177,115 L176,115 L176,116 L175,116 L175,117 L173,117 L173,116 L174,116 L174,115 L175,115 L175,114 L176,114 L176,113 L177,113 L177,112 L178,112 L178,111 L175,111 L175,109 L180,109 L180,108 L181,108 L181,107 L179,107 L179,106 L178,106 L178,104 L182,104 L182,103 L183,103 L183,102 L182,102 L182,101 L181,101 L181,100 L185,100 L185,98 L186,98 L186,93 L185,93 L185,92 Z M199,117 L199,118 L200,118 L200,120 L199,120 L199,123 L197,123 L197,121 L196,121 L196,117 L199,117 Z M196,116 L196,117 L195,117 L195,116 L196,116 Z M193,100 L193,101 L194,101 L194,102 L195,102 L195,103 L196,103 L196,104 L197,104 L197,105 L199,105 L199,107 L198,107 L198,109 L199,109 L199,110 L197,110 L197,109 L196,109 L196,106 L195,106 L195,107 L193,107 L193,105 L192,105 L192,103 L193,103 L193,102 L192,102 L192,100 L193,100 Z M174,98 L172,98 L172,100 L173,100 L173,99 L174,99 L174,98 Z M192,99 L192,100 L191,100 L191,99 L192,99 Z M188,64 L187,64 L187,66 L186,66 L186,70 L185,70 L185,71 L184,71 L184,74 L183,74 L183,76 L182,76 L182,77 L181,77 L181,72 L180,72 L180,73 L179,73 L179,74 L180,74 L180,76 L179,76 L179,77 L178,77 L178,75 L177,75 L177,76 L176,76 L176,79 L175,79 L175,80 L174,80 L174,81 L172,81 L172,84 L173,84 L173,85 L178,85 L178,86 L176,86 L176,88 L175,88 L175,87 L174,87 L174,89 L173,89 L173,87 L174,87 L174,86 L172,86 L172,93 L173,93 L173,95 L174,95 L174,96 L175,96 L175,97 L177,97 L177,96 L179,96 L179,95 L180,95 L180,91 L176,91 L176,88 L180,88 L180,89 L182,89 L182,91 L183,91 L183,90 L184,90 L184,88 L185,88 L185,91 L186,91 L186,92 L188,92 L188,89 L186,89 L186,88 L188,88 L188,85 L187,85 L187,87 L186,87 L186,83 L187,83 L187,80 L188,80 L188,76 L186,76 L186,74 L188,74 L188,64 Z M186,87 L186,88 L185,88 L185,87 L186,87 Z M140,86 L140,87 L139,87 L139,86 L140,86 Z M198,79 L198,80 L197,80 L197,82 L196,82 L196,81 L195,81 L195,79 L194,79 L194,82 L193,82 L193,80 L192,80 L192,75 L193,75 L193,76 L194,76 L194,77 L196,77 L196,79 L198,79 Z M200,80 L200,81 L198,81 L198,80 L200,80 Z M173,77 L172,77 L172,80 L173,80 L173,77 Z M166,77 L165,77 L165,78 L166,78 L166,77 Z M158,63 L158,64 L157,64 L157,63 L158,63 Z M198,58 L198,59 L197,59 L197,58 L198,58 Z M185,58 L185,59 L184,59 L184,58 L185,58 Z M197,56 L197,58 L195,58 L195,56 L197,56 Z M193,54 L193,55 L195,55 L195,56 L194,56 L194,57 L192,57 L192,54 L193,54 Z M173,47 L173,49 L172,49 L172,47 L173,47 Z M194,46 L194,47 L192,47 L192,46 L194,46 Z M181,42 L181,43 L180,43 L180,42 L181,42 Z M163,41 L163,42 L162,42 L162,41 L163,41 Z M195,34 L195,35 L194,35 L194,34 L195,34 Z M194,33 L194,34 L192,34 L192,33 L194,33 Z M196,25 L196,26 L195,26 L195,25 L196,25 Z M194,24 L194,25 L193,25 L193,24 L194,24 Z M186,20 L186,21 L185,21 L185,20 L186,20 Z M169,17 L169,18 L168,18 L168,17 L169,17 Z" id="Trees" fill="#141525"></path>
            <g id="Clouds">
                <rect id="Rectangle" fill="#677C81" x="19" y="0" width="1" height="1"></rect>
                <rect id="Rectangle" fill="#818A8B" x="16" y="2" width="1" height="1"></rect>
                <rect id="Rectangle" fill="#607277" x="20" y="15" width="1" height="1"></rect>
                <rect id="Rectangle" fill="#607277" x="27" y="8" width="1" height="1"></rect>
                <rect id="Rectangle" fill="#607277" x="45" y="9" width="1" height="1"></rect>
                <rect id="Rectangle" fill="#607277" x="43" y="1" width="1" height="1"></rect>
                <rect id="Rectangle" fill="#7E8381" x="49" y="3" width="1" height="1"></rect>
                <rect id="Rectangle" fill="#7E8381" x="63" y="6" width="1" height="1"></rect>
                <rect id="Rectangle" fill="#D4C5BD" x="61" y="9" width="1" height="1"></rect>
                <rect id="Rectangle" fill="#D4C5BD" x="68" y="8" width="1" height="1"></rect>
                <rect id="Rectangle" fill="#D4C5BD" x="67" y="19" width="1" height="1"></rect>
                <rect id="Rectangle" fill="#D4C5BD" x="118" y="24" width="1" height="1"></rect>
                <rect id="Rectangle" fill="#847C7A" x="106" y="33" width="1" height="1"></rect>
                <rect id="Rectangle" fill="#C6C9C6" x="95" y="40" width="1" height="1"></rect>
                <rect id="Rectangle" fill="#757170" x="87" y="44" width="1" height="1"></rect>
                <rect id="Rectangle" fill="#DEB5AB" x="85" y="64" width="1" height="1"></rect>
                <rect id="Rectangle" fill="#8D7A74" x="90" y="77" width="1" height="1"></rect>
                <rect id="Rectangle" fill="#968683" x="92" y="62" width="1" height="1"></rect>
                <rect id="Rectangle" fill="#757170" x="126" y="39" width="1" height="1"></rect>
                <rect id="Rectangle" fill="#757170" x="129" y="41" width="1" height="1"></rect>
                <rect id="Rectangle" fill="#847C7A" x="165" y="29" width="1" height="1"></rect>
                <rect id="Rectangle" fill="#907D78" x="177" y="35" width="1" height="1"></rect>
                <rect id="Rectangle" fill="#907D78" x="195" y="64" width="1" height="1"></rect>
                <rect id="Rectangle" fill="#A78175" x="182" y="80" width="1" height="1"></rect>
                <rect id="Rectangle" fill="#A78175" x="144" y="80" width="1" height="1"></rect>
                <rect id="Rectangle" fill="#A78175" x="136" y="76" width="1" height="1"></rect>
                <rect id="Rectangle" fill="#C49C8F" x="127" y="85" width="1" height="1"></rect>
                <rect id="Rectangle" fill="#E2B1A4" x="132" y="94" width="1" height="1"></rect>
                <rect id="Rectangle" fill="#A98679" x="144" y="95" width="1" height="1"></rect>
                <rect id="Rectangle" fill="#A98679" x="158" y="102" width="1" height="1"></rect>
                <rect id="Rectangle" fill="#A98679" x="113" y="100" width="1" height="1"></rect>
                <rect id="Rectangle" fill="#757170" x="89" y="42" width="1" height="1"></rect>
                <rect id="Rectangle" fill="#8C8583" x="51" y="39" width="1" height="1"></rect>
                <rect id="Rectangle" fill="#8C8583" x="31" y="41" width="1" height="1"></rect>
                <rect id="Rectangle" fill="#8F908E" x="42" y="61" width="1" height="1"></rect>
                <rect id="Rectangle" fill="#8F908E" x="17" y="73" width="1" height="1"></rect>
                <rect id="Rectangle" fill="#8F908E" x="13" y="73" width="1" height="1"></rect>
                <rect id="Rectangle" fill="#8F908E" x="1" y="85" width="1" height="1"></rect>
                <rect id="Rectangle" fill="#8F908E" x="5" y="85" width="1" height="1"></rect>
                <rect id="Rectangle" fill="#8F908E" x="1" y="89" width="1" height="1"></rect>
                <rect id="Rectangle" fill="#8F908E" x="5" y="89" width="1" height="1"></rect>
                <rect id="Rectangle" fill="#8F908E" x="3" y="91" width="1" height="1"></rect>
                <rect id="Rectangle" fill="#8F908E" x="1" y="93" width="1" height="1"></rect>
                <rect id="Rectangle" fill="#8F908E" x="5" y="93" width="1" height="1"></rect>
                <rect id="Rectangle" fill="#8F908E" x="7" y="91" width="1" height="1"></rect>
                <rect id="Rectangle" fill="#8F908E" x="9" y="89" width="1" height="1"></rect>
                <rect id="Rectangle" fill="#8F908E" x="15" y="87" width="1" height="1"></rect>
                <rect id="Rectangle" fill="#8F908E" x="19" y="87" width="1" height="1"></rect>
                <rect id="Rectangle" fill="#8F908E" x="21" y="85" width="1" height="1"></rect>
                <rect id="Rectangle" fill="#8F908E" x="25" y="81" width="1" height="1"></rect>
                <rect id="Rectangle" fill="#8F908E" x="27" y="83" width="1" height="1"></rect>
                <rect id="Rectangle" fill="#8F908E" x="33" y="81" width="1" height="1"></rect>
                <rect id="Rectangle" fill="#8F908E" x="37" y="81" width="1" height="1"></rect>
                <rect id="Rectangle" fill="#8F908E" x="39" y="79" width="1" height="1"></rect>
                <rect id="Rectangle" fill="#8F908E" x="43" y="79" width="1" height="1"></rect>
                <rect id="Rectangle" fill="#8F908E" x="33" y="89" width="1" height="1"></rect>
                <rect id="Rectangle" fill="#8F908E" x="33" y="89" width="1" height="1"></rect>
                <rect id="Rectangle" fill="#8F908E" x="25" y="97" width="1" height="1"></rect>
                <rect id="Rectangle" fill="#8F908E" x="29" y="97" width="1" height="1"></rect>
                <rect id="Rectangle" fill="#9C8D8A" x="33" y="105" width="1" height="1"></rect>
                <rect id="Rectangle" fill="#A7897F" x="17" y="103" width="1" height="1"></rect>
                <rect id="Rectangle" fill="#A8988F" x="20" y="112" width="1" height="1"></rect>
                <rect id="Rectangle" fill="#968683" x="13" y="113" width="1" height="1"></rect>
                <rect id="Rectangle" fill="#968683" x="13" y="117" width="1" height="1"></rect>
                <rect id="Rectangle" fill="#968683" x="17" y="117" width="1" height="1"></rect>
                <rect id="Rectangle" fill="#968683" x="21" y="117" width="1" height="1"></rect>
                <rect id="Rectangle" fill="#968683" x="9" y="117" width="1" height="1"></rect>
                <rect id="Rectangle" fill="#968683" x="7" y="115" width="1" height="1"></rect>
                <rect id="Rectangle" fill="#968683" x="5" y="117" width="1" height="1"></rect>
                <rect id="Rectangle" fill="#968683" x="5" y="122" width="1" height="1"></rect>
                <rect id="Rectangle" fill="#968683" x="1" y="122" width="1" height="1"></rect>
                <rect id="Rectangle" fill="#968683" x="1" y="126" width="1" height="1"></rect>
                <rect id="Rectangle" fill="#968683" x="5" y="126" width="1" height="1"></rect>
                <rect id="Rectangle" fill="#968683" x="5" y="122" width="1" height="1"></rect>
                <rect id="Rectangle" fill="#968683" x="7" y="124" width="1" height="1"></rect>
                <rect id="Rectangle" fill="#968683" x="9" y="122" width="1" height="1"></rect>
                <rect id="Rectangle" fill="#968683" x="17" y="122" width="1" height="1"></rect>
                <rect id="Rectangle" fill="#968683" x="30" y="117" width="1" height="1"></rect>
                <rect id="Rectangle" fill="#968683" x="37" y="118" width="1" height="1"></rect>
                <rect id="Rectangle" fill="#AC9D95" x="45" y="88" width="1" height="1"></rect>
                <rect id="Rectangle" fill="#9C8D8A" x="53" y="87" width="1" height="1"></rect>
                <rect id="Rectangle" fill="#8F908E" x="45" y="89" width="1" height="1"></rect>
                <rect id="Rectangle" fill="#8F908E" x="45" y="93" width="1" height="1"></rect>
                <rect id="Rectangle" fill="#928C8A" x="29" y="83" width="1" height="1"></rect>
                <rect id="Rectangle" fill="#928C8A" x="19" y="70" width="1" height="1"></rect>
                <rect id="Rectangle" fill="#5B6A6D" x="77" y="2" width="1" height="1"></rect>
                <rect id="Rectangle" fill="#5B6A6D" x="84" y="4" width="1" height="1"></rect>
                <rect id="Rectangle" fill="#7E8381" x="83" y="7" width="1" height="1"></rect>
                <rect id="Rectangle" fill="#7E8381" x="101" y="8" width="1" height="1"></rect>
                <rect id="Rectangle" fill="#7E8381" x="106" y="10" width="1" height="1"></rect>
                <rect id="Rectangle" fill="#7E8381" x="139" y="9" width="1" height="1"></rect>
                <rect id="Rectangle" fill="#7E8381" x="144" y="6" width="1" height="1"></rect>
                <rect id="Rectangle" fill="#7E8381" x="164" y="15" width="1" height="1"></rect>
                <rect id="Rectangle" fill="#7E8381" x="183" y="12" width="1" height="1"></rect>
                <rect id="Rectangle" fill="#787371" x="193" y="0" width="1" height="1"></rect>
                <rect id="Rectangle" fill="#636262" x="194" y="10" width="1" height="1"></rect>
                <rect id="Rectangle" fill="#636262" x="167" y="8" width="1" height="1"></rect>
                <rect id="Rectangle" fill="#636262" x="171" y="4" width="1" height="1"></rect>
                <rect id="Rectangle" fill="#636262" x="152" y="3" width="1" height="1"></rect>
                <rect id="Rectangle" fill="#7E8381" x="139" y="9" width="1" height="1"></rect>
                <rect id="Rectangle" fill="#7E8381" x="144" y="6" width="1" height="1"></rect>
                <g id="Group-3" transform="translate(137.000000, 1.000000)">
                    <rect id="Rectangle" fill="#7E8381" x="1" y="2" width="1" height="1"></rect>
                    <rect id="Rectangle" fill="#7E8381" x="0" y="1" width="1" height="1"></rect>
                    <rect id="Rectangle" fill="#7E8381" x="1" y="0" width="1" height="1"></rect>
                    <rect id="Rectangle" fill="#7E8381" x="2" y="1" width="1" height="1"></rect>
                    <rect id="Rectangle" fill="#D4C5BD" x="1" y="1" width="1" height="1"></rect>
                </g>
                <g id="Group-3" transform="translate(16.000000, 28.000000)">
                    <rect id="Rectangle" fill="#7E8381" x="1" y="2" width="1" height="1"></rect>
                    <rect id="Rectangle" fill="#7E8381" x="0" y="1" width="1" height="1"></rect>
                    <rect id="Rectangle" fill="#7E8381" x="1" y="0" width="1" height="1"></rect>
                    <rect id="Rectangle" fill="#7E8381" x="2" y="1" width="1" height="1"></rect>
                    <rect id="Rectangle" fill="#D4C5BD" x="1" y="1" width="1" height="1"></rect>
                </g>
                <g id="Group-3" transform="translate(158.000000, 31.000000)">
                    <rect id="Rectangle" fill="#8C8583" x="1" y="2" width="1" height="1"></rect>
                    <rect id="Rectangle" fill="#8C8583" x="0" y="1" width="1" height="1"></rect>
                    <rect id="Rectangle" fill="#8C8583" x="1" y="0" width="1" height="1"></rect>
                    <rect id="Rectangle" fill="#897C79" x="2" y="1" width="1" height="1"></rect>
                    <rect id="Rectangle" fill="#FBFBFB" x="1" y="1" width="1" height="1"></rect>
                </g>
                <rect id="Rectangle" fill="#5B6A6D" x="104" y="4" width="1" height="1"></rect>
                <rect id="Rectangle" fill="#5B6A6D" x="113" y="2" width="1" height="1"></rect>
                <rect id="Rectangle" fill="#5B6A6D" x="125" y="8" width="1" height="1"></rect>
                <rect id="Rectangle" fill="#5D7175" x="5" y="0" width="1" height="1"></rect>
                <rect id="Rectangle" fill="#818A8B" x="8" y="10" width="1" height="1"></rect>
                <path d="M8,150 L8,152 L20,152 L20,154 L28,154 L28,156 L38,156 L38,158 L52,158 L52,160 L30,160 L30,162 L0,162 L0,150 L8,150 Z M191,158 L191,160 L190,160 L190,158 L191,158 Z M194,148 L194,150 L200,150 L200,160 L193,160 L193,159 L192,159 L192,157 L191,157 L191,153 L190,153 L190,148 L194,148 Z M186,148 L186,151 L184,151 L184,152 L186,152 L186,154 L182,154 L182,155 L184,155 L184,156 L185,156 L185,155 L186,155 L186,157 L185,157 L185,159 L184,159 L184,158 L178,158 L178,150 L179,150 L179,154 L180,154 L180,153 L181,153 L181,150 L182,150 L182,148 L186,148 Z M160,148 L160,149 L161,149 L161,150 L158,150 L158,151 L156,151 L156,152 L153,152 L153,151 L151,151 L151,152 L149,152 L149,153 L145,153 L145,154 L134,154 L134,156 L124,156 L124,158 L98,158 L98,156 L122,156 L122,154 L132,154 L132,152 L138,152 L138,150 L147,150 L147,148 L160,148 Z M174,157 L174,158 L173,158 L173,157 L174,157 Z M172,154 L172,156 L171,156 L171,158 L170,158 L170,156 L167,156 L167,155 L170,155 L170,154 L172,154 Z M166,148 L166,150 L167,150 L167,149 L168,149 L168,148 L172,148 L172,153 L170,153 L170,151 L166,151 L166,152 L167,152 L167,153 L168,153 L168,154 L166,154 L166,155 L162,155 L162,156 L157,156 L157,155 L158,155 L158,154 L159,154 L159,152 L160,152 L160,151 L161,151 L161,150 L162,150 L162,153 L163,153 L163,152 L164,152 L164,150 L165,150 L165,148 L166,148 Z M154,153 L154,154 L151,154 L151,153 L154,153 Z M50,120 L50,122 L92,122 L92,124 L100,124 L100,126 L104,126 L104,128 L108,128 L108,126 L116,126 L116,124 L132,124 L132,122 L165,122 L165,123 L163,123 L163,124 L160,124 L160,125 L159,125 L159,126 L156,126 L156,127 L155,127 L155,126 L154,126 L154,127 L151,127 L151,128 L150,128 L150,130 L153,130 L153,129 L155,129 L155,128 L157,128 L157,127 L159,127 L159,128 L158,128 L158,130 L161,130 L161,128 L162,128 L162,126 L163,126 L163,125 L164,125 L164,128 L166,128 L166,126 L167,126 L167,125 L168,125 L168,121 L169,121 L169,124 L172,124 L172,128 L168,128 L168,130 L172,130 L172,133 L171,133 L171,136 L150,136 L150,138 L144,138 L144,140 L128,140 L128,142 L120,142 L120,144 L118,144 L118,146 L100,146 L100,148 L78,148 L78,150 L74,150 L74,152 L58,152 L58,150 L26,150 L26,148 L10,148 L10,146 L4,146 L4,144 L0,144 L0,128 L45,128 L45,126 L60,126 L60,124 L22,124 L22,122 L0,122 L0,120 L50,120 Z M163,149 L163,150 L162,150 L162,149 L163,149 Z M178,148 L178,150 L176,150 L176,148 L178,148 Z M197,139 L197,140 L199,140 L199,139 L200,139 L200,142 L195,142 L195,141 L196,141 L196,140 L195,140 L195,139 L197,139 Z M188,138 L188,140 L187,140 L187,138 L188,138 Z M191,138 L191,139 L192,139 L192,140 L190,140 L190,138 L191,138 Z M194,120 L194,122 L196,122 L196,121 L197,121 L197,123 L199,123 L199,120 L200,120 L200,124 L192,124 L192,126 L198,126 L198,128 L200,128 L200,138 L193,138 L193,137 L190,137 L190,128 L188,128 L188,124 L190,124 L190,122 L188,122 L188,120 L194,120 Z M183,135 L183,137 L184,137 L184,138 L182,138 L182,135 L183,135 Z M177,130 L177,132 L178,132 L178,135 L179,135 L179,136 L178,136 L178,137 L179,137 L179,138 L176,138 L176,130 L177,130 Z M186,120 L186,129 L183,129 L183,130 L186,130 L186,135 L184,135 L184,134 L182,134 L182,133 L180,133 L180,132 L181,132 L181,130 L180,130 L180,131 L179,131 L179,130 L178,130 L178,129 L177,129 L177,128 L176,128 L176,124 L174,124 L174,122 L180,122 L180,120 L186,120 Z M170,120 L170,121 L169,121 L169,120 L170,120 Z" id="Combined-Shape" fill="#FFFFFF" opacity="0.094749814"></path>
                <g id="C3" transform="translate(0.000000, 2.000000)">
                    <rect id="Rectangle" fill="#E4E4E4" opacity="0.0845191592" x="0" y="100" width="45" height="4"></rect>
                    <rect id="Rectangle" fill="#E4E4E4" opacity="0.0845191592" x="44" y="98" width="16" height="3"></rect>
                    <rect id="Rectangle" fill="#E4E4E4" opacity="0.0845191592" x="34" y="76" width="50" height="2"></rect>
                    <rect id="Rectangle" fill="#E4E4E4" opacity="0.0845191592" x="42" y="74" width="32" height="2"></rect>
                    <rect id="Rectangle" fill="#E4E4E4" opacity="0.0845191592" x="60" y="70" width="32" height="2"></rect>
                    <rect id="Rectangle" fill="#E4E4E4" opacity="0.0845191592" x="0" y="70" width="58" height="2"></rect>
                    <rect id="Rectangle" fill="#E4E4E4" opacity="0.0845191592" x="18" y="72" width="58" height="2"></rect>
                    <rect id="Rectangle" fill="#E4E4E4" opacity="0.0845191592" x="140" y="87" width="30" height="3"></rect>
                    <rect id="Rectangle" fill="#E4E4E4" opacity="0.0845191592" x="139" y="85" width="1" height="3"></rect>
                    <rect id="Rectangle" fill="#E4E4E4" opacity="0.0845191592" x="140" y="84" width="1" height="3"></rect>
                    <rect id="Rectangle" fill="#E4E4E4" opacity="0.0845191592" x="139" y="82" width="5" height="2"></rect>
                    <rect id="Rectangle" fill="#E4E4E4" opacity="0.0845191592" x="144" y="82" width="6" height="1"></rect>
                    <rect id="Rectangle" fill="#E4E4E4" opacity="0.0845191592" x="145" y="84" width="2" height="1"></rect>
                    <rect id="Rectangle" fill="#E4E4E4" opacity="0.0845191592" x="150" y="84" width="2" height="1"></rect>
                    <rect id="Rectangle" fill="#E4E4E4" opacity="0.0845191592" x="149" y="85" width="2" height="1"></rect>
                    <rect id="Rectangle" fill="#E4E4E4" opacity="0.0845191592" x="153" y="85" width="2" height="1"></rect>
                    <rect id="Rectangle" fill="#E4E4E4" opacity="0.0845191592" x="154" y="82" width="2" height="2"></rect>
                    <rect id="Rectangle" fill="#E4E4E4" opacity="0.0845191592" x="148" y="86" width="22" height="1"></rect>
                    <rect id="Rectangle" fill="#E4E4E4" opacity="0.0845191592" x="151" y="83" width="1" height="1"></rect>
                    <rect id="Rectangle" fill="#E4E4E4" opacity="0.0845191592" x="154" y="84" width="1" height="1"></rect>
                    <rect id="Rectangle" fill="#E4E4E4" opacity="0.0845191592" x="156" y="81" width="1" height="1"></rect>
                    <rect id="Rectangle" fill="#E4E4E4" opacity="0.0845191592" x="160" y="82" width="1" height="1"></rect>
                    <rect id="Rectangle" fill="#E4E4E4" opacity="0.0845191592" x="172" y="84" width="2" height="1"></rect>
                    <rect id="Rectangle" fill="#E4E4E4" opacity="0.0845191592" x="174" y="86" width="2" height="6"></rect>
                    <rect id="Rectangle" fill="#E4E4E4" opacity="0.0845191592" x="182" y="87" width="2" height="1"></rect>
                    <rect id="Rectangle" fill="#E4E4E4" opacity="0.0845191592" x="182" y="88" width="1" height="1"></rect>
                    <rect id="Rectangle" fill="#E4E4E4" opacity="0.0845191592" x="174" y="85" width="1" height="1"></rect>
                    <rect id="Rectangle" fill="#E4E4E4" opacity="0.0845191592" x="169" y="68" width="1" height="1"></rect>
                    <rect id="Rectangle" fill="#E4E4E4" opacity="0.0845191592" x="184" y="69" width="1" height="1"></rect>
                    <rect id="Rectangle" fill="#E4E4E4" opacity="0.0845191592" x="172" y="68" width="1" height="2"></rect>
                    <rect id="Rectangle" fill="#E4E4E4" opacity="0.0845191592" x="152" y="68" width="17" height="2"></rect>
                    <rect id="Rectangle" fill="#E4E4E4" opacity="0.0845191592" x="8" y="66" width="130" height="2"></rect>
                    <rect id="Rectangle" fill="#E4E4E4" opacity="0.0845191592" x="132" y="70" width="22" height="2"></rect>
                    <rect id="Rectangle" fill="#E4E4E4" opacity="0.0845191592" x="0" y="68" width="140" height="2"></rect>
                    <rect id="Rectangle" fill="#E4E4E4" opacity="0.0845191592" x="177" y="68" width="4" height="1"></rect>
                    <rect id="Rectangle" fill="#E4E4E4" opacity="0.0845191592" x="179" y="89" width="1" height="1"></rect>
                    <rect id="Rectangle" fill="#E4E4E4" opacity="0.0845191592" x="186" y="85" width="1" height="1"></rect>
                    <rect id="Rectangle" fill="#E4E4E4" opacity="0.0845191592" x="185" y="91" width="1" height="1"></rect>
                    <rect id="Rectangle" fill="#E4E4E4" opacity="0.0845191592" x="185" y="86" width="1" height="3"></rect>
                    <rect id="Rectangle" fill="#E4E4E4" opacity="0.0845191592" x="187" y="83" width="1" height="3"></rect>
                    <rect id="Rectangle" fill="#E4E4E4" opacity="0.0845191592" x="186" y="87" width="2" height="3"></rect>
                    <rect id="Rectangle" fill="#E4E4E4" opacity="0.0845191592" x="184" y="90" width="1" height="2"></rect>
                    <rect id="Rectangle" fill="#E4E4E4" opacity="0.0845191592" x="175" y="94" width="1" height="1"></rect>
                    <rect id="Rectangle" fill="#E4E4E4" opacity="0.0845191592" x="175" y="94" width="1" height="1"></rect>
                    <rect id="Rectangle" fill="#E4E4E4" opacity="0.0845191592" x="177" y="91" width="3" height="1"></rect>
                    <rect id="Rectangle" fill="#E4E4E4" opacity="0.0845191592" x="172" y="85" width="1" height="6"></rect>
                    <rect id="Rectangle" fill="#E4E4E4" opacity="0.0845191592" x="173" y="87" width="1" height="1"></rect>
                    <rect id="Rectangle" fill="#E4E4E4" opacity="0.0845191592" x="176" y="89" width="1" height="6"></rect>
                    <rect id="Rectangle" fill="#E4E4E4" opacity="0.0845191592" x="178" y="85" width="7" height="1"></rect>
                    <rect id="Rectangle" fill="#E4E4E4" opacity="0.0845191592" x="180" y="86" width="4" height="1"></rect>
                    <rect id="Rectangle" fill="#E4E4E4" opacity="0.0845191592" x="176" y="84" width="2" height="2"></rect>
                    <rect id="Rectangle" fill="#E4E4E4" opacity="0.0845191592" x="178" y="83" width="8" height="2"></rect>
                    <rect id="Rectangle" fill="#E4E4E4" opacity="0.0845191592" x="190" y="68" width="10" height="2"></rect>
                    <rect id="Rectangle" fill="#E4E4E4" opacity="0.0845191592" x="185" y="68" width="3" height="2"></rect>
                    <rect id="Rectangle" fill="#E4E4E4" opacity="0.0845191592" x="190" y="82" width="10" height="8"></rect>
                    <rect id="Rectangle" fill="#E4E4E4" opacity="0.0845191592" x="173" y="82" width="13" height="1"></rect>
                    <rect id="Rectangle" fill="#E4E4E4" opacity="0.0845191592" x="158" y="83" width="1" height="1"></rect>
                    <rect id="Rectangle" fill="#E4E4E4" opacity="0.0845191592" x="158" y="83" width="1" height="2"></rect>
                    <rect id="Rectangle" fill="#E4E4E4" opacity="0.0845191592" x="161" y="82" width="7" height="3"></rect>
                    <rect id="Rectangle" fill="#E4E4E4" opacity="0.0845191592" x="157" y="85" width="11" height="1"></rect>
                    <rect id="Rectangle" fill="#E4E4E4" opacity="0.0845191592" x="148" y="90" width="22" height="2"></rect>
                    <rect id="Rectangle" fill="#E4E4E4" opacity="0.0845191592" x="141" y="85" width="5" height="2"></rect>
                    <rect id="Rectangle" fill="#E4E4E4" opacity="0.0845191592" x="96" y="90" width="18" height="2"></rect>
                    <rect id="Rectangle" fill="#E4E4E4" opacity="0.0845191592" x="10" y="80" width="143" height="2"></rect>
                    <rect id="Rectangle" fill="#E4E4E4" opacity="0.0845191592" x="16" y="78" width="130" height="2"></rect>
                    <rect id="Rectangle" fill="#E4E4E4" opacity="0.0845191592" x="26" y="98" width="12" height="2"></rect>
                    <rect id="Rectangle" fill="#E4E4E4" opacity="0.0845191592" x="36" y="96" width="6" height="2"></rect>
                    <rect id="Rectangle" fill="#E4E4E4" opacity="0.0845191592" x="94" y="70" width="6" height="2"></rect>
                    <rect id="Rectangle" fill="#E4E4E4" opacity="0.0845191592" x="16" y="64" width="8" height="2"></rect>
                    <rect id="Rectangle" fill="#E4E4E4" opacity="0.0845191592" x="8" y="54" width="20" height="2"></rect>
                    <rect id="Rectangle" fill="#E4E4E4" opacity="0.0845191592" x="0" y="50" width="10" height="2"></rect>
                    <rect id="Rectangle" fill="#E4E4E4" opacity="0.0845191592" x="0" y="14" width="4" height="2"></rect>
                    <rect id="Rectangle" fill="#E4E4E4" opacity="0.0845191592" x="26" y="50" width="142" height="2"></rect>
                    <rect id="Rectangle" fill="#E4E4E4" opacity="0.0845191592" x="0" y="46" width="44" height="2"></rect>
                    <rect id="Rectangle" fill="#E4E4E4" opacity="0.0845191592" x="0" y="18" width="74" height="2"></rect>
                    <rect id="Rectangle" fill="#E4E4E4" opacity="0.0845191592" x="56" y="20" width="112" height="2"></rect>
                    <rect id="Rectangle" fill="#E4E4E4" opacity="0.0845191592" x="72" y="22" width="72" height="2"></rect>
                    <rect id="Rectangle" fill="#E4E4E4" opacity="0.0845191592" x="52" y="14" width="108" height="2"></rect>
                    <rect id="Rectangle" fill="#E4E4E4" opacity="0.0845191592" x="0" y="16" width="168" height="2"></rect>
                    <rect id="Rectangle" fill="#E4E4E4" opacity="0.0845191592" x="0" y="48" width="58" height="2"></rect>
                    <rect id="Rectangle" fill="#E4E4E4" opacity="0.0845191592" x="54" y="54" width="46" height="2"></rect>
                    <rect id="Rectangle" fill="#E4E4E4" opacity="0.0845191592" x="152" y="44" width="16" height="2"></rect>
                    <rect id="Rectangle" fill="#E4E4E4" opacity="0.0845191592" x="173" y="44" width="15" height="3"></rect>
                    <rect id="Rectangle" fill="#E4E4E4" opacity="0.0845191592" x="170" y="49" width="8" height="3"></rect>
                    <rect id="Rectangle" fill="#E4E4E4" opacity="0.0845191592" x="178" y="49" width="3" height="2"></rect>
                    <rect id="Rectangle" fill="#E4E4E4" opacity="0.0845191592" x="181" y="48" width="3" height="2"></rect>
                    <rect id="Rectangle" fill="#E4E4E4" opacity="0.0845191592" x="184" y="47" width="2" height="2"></rect>
                    <rect id="Rectangle" fill="#E4E4E4" opacity="0.0845191592" x="170" y="45" width="2" height="2"></rect>
                    <rect id="Rectangle" fill="#E4E4E4" opacity="0.0845191592" x="190" y="44" width="2" height="1"></rect>
                    <rect id="Rectangle" fill="#E4E4E4" opacity="0.0845191592" x="187" y="49" width="1" height="1"></rect>
                    <rect id="Rectangle" fill="#E4E4E4" opacity="0.0845191592" x="194" y="44" width="6" height="1"></rect>
                    <rect id="Rectangle" fill="#E4E4E4" opacity="0.0845191592" x="190" y="45" width="10" height="5"></rect>
                    <rect id="Rectangle" fill="#E4E4E4" opacity="0.0845191592" x="186" y="47" width="1" height="1"></rect>
                    <rect id="Rectangle" fill="#E4E4E4" opacity="0.0845191592" x="181" y="47" width="3" height="1"></rect>
                    <rect id="Rectangle" fill="#E4E4E4" opacity="0.0845191592" x="171" y="44" width="2" height="1"></rect>
                    <rect id="Rectangle" fill="#E4E4E4" opacity="0.0845191592" x="170" y="47" width="11" height="2"></rect>
                    <rect id="Rectangle" fill="#E4E4E4" opacity="0.0845191592" x="100" y="46" width="66" height="2"></rect>
                    <rect id="Rectangle" fill="#E4E4E4" opacity="0.0845191592" x="66" y="48" width="102" height="2"></rect>
                    <rect id="Rectangle" fill="#E4E4E4" opacity="0.0845191592" x="2" y="52" width="112" height="2"></rect>
                    <rect id="Rectangle" fill="#E4E4E4" opacity="0.0845191592" x="82" y="88" width="47" height="2"></rect>
                    <rect id="Rectangle" fill="#E4E4E4" opacity="0.0845191592" x="10" y="94" width="70" height="2"></rect>
                    <rect id="Rectangle" fill="#E4E4E4" opacity="0.0845191592" x="0" y="88" width="82" height="6"></rect>
                    <rect id="Rectangle" fill="#E4E4E4" opacity="0.0845191592" x="0" y="82" width="139" height="6"></rect>
                    <rect id="Rectangle" fill="#E4E4E4" opacity="0.0845191592" x="142" y="18" width="26" height="2"></rect>
                    <rect id="Rectangle" fill="#E4E4E4" opacity="0.0845191592" x="169" y="20" width="19" height="2"></rect>
                    <rect id="Rectangle" fill="#E4E4E4" opacity="0.0845191592" x="190" y="16" width="10" height="2"></rect>
                    <rect id="Rectangle" fill="#E4E4E4" opacity="0.0845191592" x="190" y="18" width="10" height="2"></rect>
                    <rect id="Rectangle" fill="#E4E4E4" opacity="0.0845191592" x="192" y="20" width="4" height="2"></rect>
                    <rect id="Rectangle" fill="#E4E4E4" opacity="0.0845191592" x="169" y="16" width="18" height="2"></rect>
                    <rect id="Rectangle" fill="#E4E4E4" opacity="0.0845191592" x="169" y="18" width="16" height="2"></rect>
                    <rect id="Rectangle" fill="#E4E4E4" opacity="0.0845191592" x="186" y="18" width="2" height="2"></rect>
                    <rect id="Rectangle" fill="#E4E4E4" opacity="0.0845191592" x="185" y="19" width="1" height="1"></rect>
                    <rect id="Rectangle" fill="#E4E4E4" opacity="0.0845191592" x="187" y="16" width="1" height="1"></rect>
                    <rect id="Rectangle" fill="#E4E4E4" opacity="0.0845191592" x="190" y="21" width="1" height="1"></rect>
                    <rect id="Rectangle" fill="#818A8B" x="16" y="0" width="1" height="1"></rect>
                    <rect id="Rectangle" fill="#818A8B" x="16" y="0" width="1" height="1"></rect>
                    <rect id="Rectangle" fill="#E4E4E4" opacity="0.0845191592" x="168" y="16" width="1" height="1"></rect>
                </g>
            </g>
            <g id="Steam" transform="translate(140.000000, 109.000000)" fill="#DEDEDE" opacity="0.206287202">
                <rect id="Rectangle" x="3" y="110" width="1" height="1"></rect>
                <rect id="Rectangle" x="3" y="106" width="1" height="1"></rect>
                <rect id="Rectangle" x="3" y="101" width="1" height="1"></rect>
                <rect id="Rectangle" x="3" y="100" width="1" height="1"></rect>
                <rect id="Rectangle" x="3" y="95" width="1" height="1"></rect>
                <rect id="Rectangle" x="4" y="5" width="1" height="1"></rect>
                <rect id="Rectangle" x="4" y="0" width="1" height="1"></rect>
                <rect id="Rectangle" x="3" y="83" width="1" height="1"></rect>
                <rect id="Rectangle" x="2" y="80" width="1" height="1"></rect>
                <rect id="Rectangle" x="4" y="80" width="1" height="1"></rect>
                <rect id="Rectangle" x="3" y="76" width="1" height="1"></rect>
                <rect id="Rectangle" x="4" y="73" width="1" height="1"></rect>
                <rect id="Rectangle" x="5" y="72" width="1" height="1"></rect>
                <rect id="Rectangle" x="4" y="57" width="3" height="1"></rect>
                <rect id="Rectangle" x="5" y="69" width="2" height="2"></rect>
                <rect id="Rectangle" x="4" y="58" width="4" height="3"></rect>
                <rect id="Rectangle" x="3" y="54" width="4" height="3"></rect>
                <rect id="Rectangle" x="2" y="51" width="4" height="3"></rect>
                <rect id="Rectangle" x="1" y="48" width="4" height="3"></rect>
                <rect id="Rectangle" x="0" y="45" width="4" height="3"></rect>
                <rect id="Rectangle" x="0" y="40" width="3" height="5"></rect>
                <rect id="Rectangle" x="0" y="35" width="2" height="5"></rect>
                <rect id="Rectangle" x="1" y="29" width="1" height="6"></rect>
                <rect id="Rectangle" x="2" y="26" width="1" height="6"></rect>
                <rect id="Rectangle" x="3" y="22" width="1" height="5"></rect>
                <rect id="Rectangle" x="5" y="12" width="1" height="11"></rect>
                <rect id="Rectangle" x="4" y="8" width="1" height="17"></rect>
                <rect id="Rectangle" x="5" y="50" width="1" height="1"></rect>
                <rect id="Rectangle" x="5" y="61" width="3" height="8"></rect>
                <rect id="Rectangle" x="2" y="82" width="2" height="1"></rect>
                <rect id="Rectangle" x="2" y="81" width="3" height="1"></rect>
                <rect id="Rectangle" x="2" y="79" width="3" height="1"></rect>
                <rect id="Rectangle" x="3" y="77" width="2" height="2"></rect>
                <rect id="Rectangle" x="4" y="74" width="2" height="3"></rect>
                <rect id="Rectangle" x="1" y="83" width="1" height="9"></rect>
                <rect id="Rectangle" x="2" y="85" width="2" height="10"></rect>
                <rect id="Rectangle" x="3" y="97" width="2" height="3"></rect>
            </g>
        </g>
    </g>
</svg>