<?xml version="1.0" encoding="UTF-8"?>
<svg width="6px" height="6px" viewBox="0 0 6 6" version="1.1" xmlns="http://www.w3.org/2000/svg" xmlns:xlink="http://www.w3.org/1999/xlink">
    <!-- Generator: Sketch 61.2 (89653) - https://sketch.com -->
    <title>x</title>
    <desc>Created with Sketch.</desc>
    <g id="Page-1" stroke="none" stroke-width="1" fill="none" fill-rule="evenodd">
        <g id="Hunter" transform="translate(-205.000000, -273.000000)" fill="#000000" fill-rule="nonzero">
            <g id="Group-9" transform="translate(20.000000, 269.000000)">
                <g id="Group-7">
                    <path d="M190.894077,9.89407748 C191.033311,9.7508654 191.033311,9.5121786 190.894077,9.37294463 L188.519144,6.99801094 L190.894077,4.62705537 C191.033311,4.48384329 191.03729,4.24515649 190.894077,4.10592252 C190.750865,3.96668855 190.516157,3.96668855 190.372945,4.10592252 L188.001989,6.4808562 L185.627055,4.10592252 C185.487821,3.96668855 185.245156,3.96271044 185.105923,4.10592252 C184.966689,4.2491346 184.966689,4.4878214 185.105923,4.62307726 L187.480856,6.99801094 L185.105923,9.37294463 C184.966689,9.5121786 184.96271,9.75484351 185.105923,9.89407748 C185.249135,10.0333114 185.487821,10.0333114 185.627055,9.89407748 L188.001989,7.5191438 L190.372945,9.89407748 C190.516157,10.0333114 190.754844,10.0372896 190.894077,9.89407748 Z" id="x"></path>
                </g>
            </g>
        </g>
    </g>
</svg>