<?xml version="1.0" encoding="UTF-8"?>
<svg width="2501px" height="2032px" viewBox="0 0 2501 2032" version="1.1" xmlns="http://www.w3.org/2000/svg" xmlns:xlink="http://www.w3.org/1999/xlink">
    <!-- Generator: Sketch 61.2 (89653) - https://sketch.com -->
    <title>twitter-icon</title>
    <desc>Created with Sketch.</desc>
    <g id="Page-1" stroke="none" stroke-width="1" fill="none" fill-rule="evenodd">
        <g id="twitter-icon" transform="translate(1.000000, 1.000000)" fill="#5DA8DC" fill-rule="nonzero" stroke="#5DA8DC" stroke-width="1.12663362">
            <path d="M1669.67102,0.450653447 L1669.67102,0 L1786.84092,0 L1829.653,8.5624155 C1858.19513,14.1212258 1884.10771,21.4060388 1907.39072,30.4191077 C1930.67598,39.4321767 1953.20865,49.9481749 1974.98873,61.964849 C1996.77107,73.9815232 2016.52546,86.2257774 2034.25192,98.693105 C2051.8274,111.011717 2067.60027,124.080667 2081.57053,137.899955 C2095.38756,151.870212 2116.94457,155.475439 2146.23704,148.715638 C2175.52952,141.955836 2207.07526,132.566471 2240.87427,120.549797 C2274.67328,108.533123 2308.09824,95.0135196 2341.14466,79.9909869 C2374.19333,64.9684543 2394.32402,55.430374 2401.53447,51.374493 C2408.59396,47.1698963 2412.35016,44.9166291 2412.80081,44.6146913 L2413.24921,43.9387111 L2415.50248,42.8120775 L2417.75575,41.6854439 L2420.00901,40.5588103 L2422.26228,39.4321767 L2422.71293,38.7561965 L2423.38891,38.305543 L2424.06715,37.8548896 L2424.51555,37.1789094 L2426.76881,36.5029292 L2429.02208,36.0522758 L2428.57368,39.4321767 L2427.89545,42.8120775 L2426.76881,46.1919784 L2425.64218,49.5718792 L2424.51555,51.8251465 L2423.38891,54.0784137 L2422.26228,57.4583146 C2421.51194,59.7115818 2420.7616,62.715187 2420.00901,66.4713835 C2419.25868,70.22758 2412.12258,85.2478594 2398.60297,111.536728 C2385.08337,137.825597 2368.18387,164.488508 2347.90446,191.527715 C2327.62506,218.566922 2309.4502,238.995043 2293.37765,252.816584 C2277.15412,266.786841 2266.4128,276.550248 2261.15367,282.109058 C2255.8968,287.816584 2249.51329,293.073457 2242.0009,297.881929 L2230.73457,305.317711 L2228.4813,306.444344 L2226.22803,307.570978 L2225.77963,308.246958 L2225.1014,308.697612 L2224.42542,309.148265 L2223.97476,309.824245 L2221.7215,310.950879 L2219.46823,312.077512 L2219.01983,312.753493 L2218.3416,313.204146 L2217.66562,313.654799 L2217.21496,314.33078 L2216.76656,315.00676 L2216.08833,315.457413 L2215.41235,315.908067 L2214.96169,316.584047 L2226.22803,316.584047 L2289.31951,303.064443 C2331.38125,294.051374 2371.56377,283.161334 2409.86931,270.392068 L2470.70753,250.112663 L2477.46733,247.859396 L2480.84723,246.732763 L2483.1005,245.606129 L2485.35376,244.479495 L2487.60703,243.352862 L2489.8603,242.226228 L2494.36683,241.550248 L2498.87337,241.099594 L2498.87337,245.606129 L2497.74673,246.056782 L2496.6201,246.732763 L2496.1717,247.408743 L2495.49347,247.859396 L2494.81749,248.31005 L2494.36683,248.98603 L2493.91843,249.66201 L2493.2402,250.112663 L2492.56422,250.563317 L2492.11356,251.239297 L2491.66516,251.915277 L2490.98693,252.365931 L2489.8603,254.619198 L2488.73366,256.872465 L2488.05768,257.323119 C2487.758,257.773772 2478.21992,270.540784 2459.44119,295.628662 C2440.66471,320.865255 2430.52501,333.632267 2429.02208,333.934205 C2427.52141,334.384858 2425.41685,336.638125 2422.71293,340.694006 C2420.15998,344.898603 2404.23614,361.649392 2374.94367,390.941866 C2345.65119,420.23434 2316.9626,446.295629 2288.87111,469.130239 C2260.63091,492.113565 2246.35872,520.353763 2246.05904,553.853087 C2245.60838,587.201442 2243.88013,624.907616 2240.87427,666.967102 C2237.87066,709.028842 2232.23749,754.468229 2223.97476,803.28977 C2215.71429,852.111311 2202.94502,907.316359 2185.66922,968.904912 C2168.39567,1030.49347 2147.36368,1090.58134 2122.57774,1149.16629 C2097.7918,1207.75124 2071.87922,1260.32672 2044.84002,1306.895 C2017.80081,1353.46327 1993.01487,1392.89545 1970.4822,1425.19153 C1947.94953,1457.48761 1925.04281,1487.90671 1901.75755,1516.44885 C1878.47454,1544.99099 1849.03335,1577.13835 1813.43173,1612.88869 C1777.67913,1648.49031 1758.15232,1668.01938 1754.84678,1671.47364 C1751.39252,1674.77918 1736.67192,1687.09779 1710.68049,1708.42722 C1684.84452,1729.90762 1657.05273,1751.38801 1627.3096,1772.87066 C1597.71744,1794.20234 1570.52726,1812.00315 1545.74132,1826.2731 C1520.95539,1840.54304 1491.06354,1856.84092 1456.06129,1875.169 C1421.21226,1893.64579 1383.50608,1910.77062 1342.94727,1926.54349 C1302.38846,1942.31636 1259.57639,1956.9626 1214.51104,1970.4822 C1169.4457,1984.0018 1125.88328,1994.5178 1083.82154,2002.02794 C1041.76205,2009.53808 994.067147,2015.92384 940.739072,2021.18071 L860.748085,2029.06715 L860.748085,2030.19378 L714.285714,2030.19378 L714.285714,2029.06715 L695.132943,2027.94051 C682.365931,2027.19018 671.849932,2026.43758 663.587201,2025.68725 C655.326724,2024.93691 624.155025,2020.80442 570.076611,2013.29428 C515.998197,2005.78414 473.562416,1998.27174 442.767012,1990.7616 C411.973862,1983.25146 366.155926,1968.97927 305.317711,1947.94953 C244.479495,1926.91978 192.429022,1905.66246 149.166291,1884.18206 C106.054529,1862.85038 79.0153222,1849.33078 68.0486706,1843.62325 C57.2329878,1838.06444 45.0653447,1831.15593 31.5457413,1822.8932 L11.2663362,1810.50023 L10.817936,1809.82425 L10.1397026,1809.37359 L9.4637224,1808.92294 L9.01306895,1808.24696 L6.75980171,1807.12032 L4.50653447,1805.99369 L4.05813429,1805.31771 L3.37990086,1804.86706 L2.70392068,1804.4164 L2.25326724,1803.74042 L1.80486706,1803.06444 L1.12663362,1802.61379 L0,1802.61379 L0,1798.10726 L2.25326724,1798.55791 L4.50653447,1799.23389 L14.646237,1800.36052 C21.4060388,1801.11086 39.8084723,1802.23749 69.8512844,1803.74042 C99.8963497,1805.24335 131.816133,1805.24335 165.615142,1803.74042 C199.414151,1802.23749 233.96575,1798.85759 269.265435,1793.60072 C304.567373,1788.34385 346.252817,1779.33078 394.321767,1766.56151 C442.39297,1753.79225 486.557008,1738.621 526.816133,1721.04552 C566.92429,1703.32132 595.464173,1690.1014 612.440288,1681.38801 C629.263182,1672.8256 654.950428,1656.90176 689.499775,1633.61875 L741.324921,1598.69311 L741.775575,1598.01712 L742.451555,1597.56647 L743.129788,1597.11582 L743.578188,1596.43984 L744.028842,1595.76386 L744.704822,1595.3132 L745.383055,1594.86255 L745.831456,1594.18657 L748.084723,1593.51059 L750.33799,1593.05994 L750.788644,1590.80667 L751.464624,1588.5534 L752.142857,1588.10275 L752.591257,1587.42677 L734.565119,1586.30014 C722.548445,1585.5498 710.905813,1584.79721 699.639477,1584.04687 C688.373141,1583.29653 670.723299,1579.91663 646.687697,1573.90717 C622.654349,1567.8977 596.741776,1558.88463 568.949977,1546.86796 C541.160433,1534.85128 514.121226,1520.57909 487.832357,1504.05588 C461.545741,1487.53267 442.541685,1473.78549 430.824696,1462.82109 C419.258675,1452.00315 404.236142,1436.68319 385.759351,1416.85444 C367.433529,1396.87697 351.509689,1376.36999 337.990086,1355.34024 C324.470482,1334.3105 311.552501,1310.04732 299.236142,1282.55971 L280.531771,1241.55025 L279.405137,1238.17035 L278.278504,1234.79045 L277.602524,1232.53718 L277.15187,1230.28391 L280.531771,1230.73457 L283.911672,1231.41055 L308.697612,1234.79045 C325.223073,1237.04371 351.135647,1237.79405 386.435331,1237.04371 C421.737269,1236.29338 446.146913,1234.79045 459.666516,1232.53718 C473.18612,1230.28391 481.448851,1228.78098 484.452456,1228.03064 L488.958991,1226.90401 L494.592159,1225.77738 L500.225327,1224.65074 L500.67598,1223.97476 L501.35196,1223.52411 L502.030194,1223.07346 L502.478594,1222.39748 L497.972059,1221.27084 L493.465525,1220.14421 L488.958991,1219.01758 L484.452456,1217.89094 L479.945922,1216.76431 C476.942316,1216.01397 471.685444,1214.51104 464.173051,1212.25777 C456.662911,1210.00451 436.383506,1201.74178 403.334836,1187.47183 C370.288418,1173.20189 343.999549,1159.30599 324.470482,1145.78639 C304.893005,1132.2276 286.225928,1117.39932 268.589455,1101.39703 C251.01397,1085.1735 231.712483,1064.29247 210.680487,1038.7562 C189.650744,1013.21992 170.874268,983.551149 154.348806,949.752141 C137.825597,915.953132 125.432627,883.657053 117.169896,852.861649 C108.940392,822.247392 103.510959,790.948399 100.948626,759.351059 L96.8904912,712.032447 L99.1437584,712.4831 L101.397026,713.159081 L103.650293,714.285714 L105.90356,715.412348 L108.156827,716.538982 L110.410095,717.665615 L145.335737,733.438486 C168.621,743.954484 197.537179,752.967553 232.086525,760.477693 C266.638125,767.987832 287.291573,772.120324 294.051374,772.870662 L304.191077,773.997296 L324.470482,773.997296 L324.022082,773.321316 L323.343849,772.870662 L322.667868,772.420009 L322.217215,771.744029 L321.768815,771.068049 L321.090581,770.617395 L320.414601,770.166742 L319.963948,769.490762 L317.71068,768.364128 L315.457413,767.237494 L315.009013,766.561514 L314.33078,766.110861 L313.654799,765.660207 L313.204146,764.984227 L310.950879,763.857594 L308.697612,762.73096 L308.249211,762.05498 C307.798558,761.753042 301.338441,756.946823 288.86886,747.634069 C276.550248,738.170347 263.632267,725.928346 250.112663,710.905813 C236.59306,695.883281 223.073457,680.11041 209.553853,663.587201 C196.009358,647.026134 183.945581,629.307462 173.501577,610.635421 C162.987832,591.858945 151.870212,567.972059 140.153222,538.981523 C128.587201,510.139703 119.799459,481.072555 113.789995,451.780081 C107.782785,422.487607 104.402884,393.571429 103.650293,365.029292 C102.899955,336.487156 103.650293,312.077512 105.90356,291.798107 C108.156827,271.518702 112.663362,248.609734 119.423164,223.073457 C126.182965,197.537179 135.948626,170.497972 148.715638,141.955836 L167.868409,99.1437584 L168.995043,95.7638576 L170.121676,92.3839567 L170.79991,91.9333033 L171.24831,91.2573231 L171.698963,90.5813429 L172.374944,90.1306895 L173.053177,90.5813429 L173.501577,91.2573231 L173.952231,91.9333033 L174.628211,92.3839567 L175.306444,92.8346102 L175.754845,93.5105904 L176.205498,94.1865705 L176.881478,94.637224 L178.008112,96.8904912 L179.134745,99.1437584 L179.812979,99.5944119 L180.261379,100.270392 L210.680487,134.069401 C230.959892,156.602073 254.995493,181.764308 282.785038,209.553853 C310.576836,237.343398 325.973411,251.764308 328.977017,252.816584 C331.982875,254.017575 335.736818,257.471834 340.243353,263.181613 C344.749887,268.740424 359.77242,282.0347 385.308698,303.064443 C410.847228,324.094187 444.269941,348.506084 485.57909,376.295629 C526.890491,404.085174 572.706174,431.500676 623.028391,458.539883 C673.352862,485.57909 727.431275,509.988734 785.263632,531.771068 C843.098242,553.553402 883.657053,567.823344 906.940063,574.583146 C930.225327,581.342947 970.031546,589.979721 1026.36323,600.495719 C1082.69491,611.011717 1125.13294,617.771519 1153.67283,620.775124 C1182.21496,623.778729 1201.74403,625.506985 1212.25777,625.957639 L1228.03064,626.408292 L1227.58224,623.028391 L1226.90401,619.64849 L1222.39748,591.48265 C1219.39387,572.706174 1217.89094,546.417305 1217.89094,512.618297 C1217.89094,478.819288 1220.5205,447.649842 1225.77738,419.107706 C1231.0365,390.56557 1238.92294,361.649392 1249.43668,332.356918 C1259.95268,303.064443 1270.24335,279.553853 1280.30644,261.829653 C1290.52276,244.254169 1303.89139,224.20009 1320.4146,201.667418 C1336.94006,179.134745 1358.3461,155.851735 1384.63272,131.816133 C1410.92159,107.780532 1440.9644,86.374493 1474.76341,67.5980171 C1508.56242,48.8215412 1539.73411,34.5493466 1568.274,24.7859396 C1596.81613,15.0225327 1620.85174,8.63677332 1640.37855,5.63316809 C1659.90762,2.62956287 1669.67102,0.901306895 1669.67102,0.450653447 Z" id="Path"></path>
        </g>
    </g>
</svg>