<?xml version="1.0" encoding="UTF-8"?>
<svg width="14px" height="20px" viewBox="0 0 14 20" version="1.1" xmlns="http://www.w3.org/2000/svg" xmlns:xlink="http://www.w3.org/1999/xlink">
    <!-- Generator: Sketch 61.2 (89653) - https://sketch.com -->
    <title>upvote_icon</title>
    <desc>Created with Sketch.</desc>
    <g id="Page-1" stroke="none" stroke-width="1" fill="none" fill-rule="evenodd">
        <g id="Hunter" transform="translate(-863.000000, -145.000000)" fill="#D8D8D8">
            <g id="Group-6" transform="translate(257.000000, 144.000000)">
                <g id="Group-2">
                    <g id="Group" transform="translate(605.000000, 1.000000)">
                        <path d="M2.04976546,10.2439024 C1.49748071,10.2439024 1.04976546,9.79618719 1.04976546,9.24390244 C1.04976546,9.02084988 1.12433881,8.8042003 1.2616273,8.62840407 L7.21186184,1.0092013 C7.55179221,0.573924614 8.18022169,0.496631149 8.61549837,0.836561513 C8.67988032,0.886840746 8.73785892,0.944819354 8.78813816,1.0092013 L14.7383727,8.62840407 C15.0783031,9.06368075 15.0010096,9.69211023 14.5657329,10.0320406 C14.3899367,10.1693291 14.1732871,10.2439024 13.9502345,10.2439024 L11.6363636,10.2439024 L11.6363636,18 C11.6363636,19.1045695 10.7409331,20 9.63636364,20 L6.36363636,20 C5.25906686,20 4.36363636,19.1045695 4.36363636,18 L4.36363636,10.2439024 L2.04976546,10.2439024 Z" id="upvote_icon"></path>
                    </g>
                </g>
            </g>
        </g>
    </g>
</svg>