<?xml version="1.0" encoding="UTF-8"?>
<svg width="14px" height="20px" viewBox="0 0 14 20" version="1.1" xmlns="http://www.w3.org/2000/svg" xmlns:xlink="http://www.w3.org/1999/xlink">
    <!-- Generator: Sketch 61.2 (89653) - https://sketch.com -->
    <title>upvoted_icon</title>
    <desc>Created with Sketch.</desc>
    <g id="Page-1" stroke="none" stroke-width="1" fill="none" fill-rule="evenodd">
        <g id="Hunter" transform="translate(-822.000000, -69.000000)" fill="#ED0020">
            <path d="M823.049765,79.2439024 C822.497481,79.2439024 822.049765,78.7961872 822.049765,78.2439024 C822.049765,78.0208499 822.124339,77.8042003 822.261627,77.6284041 L828.211862,70.0092013 C828.551792,69.5739246 829.180222,69.4966311 829.615498,69.8365615 C829.67988,69.8868407 829.737859,69.9448194 829.788138,70.0092013 L835.738373,77.6284041 C836.078303,78.0636808 836.00101,78.6921102 835.565733,79.0320406 C835.389937,79.1693291 835.173287,79.2439024 834.950235,79.2439024 L832.636364,79.2439024 L832.636364,87 C832.636364,88.1045695 831.740933,89 830.636364,89 L827.363636,89 C826.259067,89 825.363636,88.1045695 825.363636,87 L825.363636,79.2439024 L823.049765,79.2439024 Z" id="upvoted_icon"></path>
        </g>
    </g>
</svg>